<svg width="69" height="98" viewBox="0 0 69 98" fill="none" xmlns="http://www.w3.org/2000/svg">
<path d="M0 0H69V74C69 87.2548 58.2548 98 45 98H24C10.7452 98 0 87.2548 0 74V0Z" fill="#3450E4"/>
<g clip-path="url(#clip0_74_1139)">
<path d="M23.3054 46H43.0509L47 56.0762L46.9949 56.0828L35.6761 69.1856L27.1176 69.7854V69.9172H46.8036V73.0426C45.7859 73.0426 44.9608 73.9007 44.9608 74.9593C44.9608 76.0178 45.7859 76.8746 46.8036 76.8746V80H25.944L22 69.9317L39.6239 50.0719L39.534 49.9783L33.2871 56.0828H23.3054L23.313 52.9561C24.3307 52.9561 25.1557 52.0993 25.1557 51.0407C25.1557 49.9822 24.3307 49.1254 23.313 49.1254L23.3054 46Z" fill="white"/>
</g>
<defs>
<clipPath id="clip0_74_1139">
<rect width="25" height="34" fill="white" transform="translate(22 46)"/>
</clipPath>
</defs>
</svg>
