<svg width="118" height="118" viewBox="0 0 118 118" fill="none" xmlns="http://www.w3.org/2000/svg">
<rect width="118" height="118" rx="24" fill="#3450E4"/>
<g clip-path="url(#clip0_61_1464)">
<path d="M39.2975 29H74.0496L81 46.1889L80.9911 46.2001L61.07 68.5519L46.007 69.575V69.7999H80.6543V75.1315C78.8631 75.1315 77.411 76.5954 77.411 78.4011C77.411 80.2068 78.8631 81.6684 80.6543 81.6684V87H43.9415L37 69.8246L68.0181 35.9461L67.8598 35.7865L56.8654 46.2001H39.2975L39.3109 40.8662C41.102 40.8662 42.5541 39.4046 42.5541 37.5989C42.5541 35.7932 41.102 34.3316 39.3109 34.3316L39.2975 29Z" fill="white"/>
</g>
<defs>
<clipPath id="clip0_61_1464">
<rect width="44" height="58" fill="white" transform="translate(37 29)"/>
</clipPath>
</defs>
</svg>
