<svg width="174" height="238" viewBox="0 0 174 238" fill="none" xmlns="http://www.w3.org/2000/svg">
<g clip-path="url(#clip0_75_1270)">
<path d="M9.08547 0H146.514L174 70.5336L173.965 70.5797L95.1858 162.299L35.6186 166.498V167.42H172.633V189.298C165.55 189.298 159.807 195.305 159.807 202.715C159.807 210.124 165.55 216.122 172.633 216.122V238H27.4505L0 167.522L122.663 28.5032L122.036 27.848L78.5585 70.5797H9.08547L9.1384 48.6925C16.2215 48.6925 21.9639 42.6948 21.9639 35.2852C21.9639 27.8757 16.2215 21.878 9.1384 21.878L9.08547 0Z" fill="url(#paint0_linear_75_1270)"/>
</g>
<defs>
<linearGradient id="paint0_linear_75_1270" x1="-78.7143" y1="7.5862e-06" x2="200.672" y2="255.262" gradientUnits="userSpaceOnUse">
<stop stop-color="white" stop-opacity="0"/>
<stop offset="0.050407" stop-color="#3450E4"/>
<stop offset="1" stop-color="white" stop-opacity="0"/>
</linearGradient>
<clipPath id="clip0_75_1270">
<rect width="174" height="238" fill="white"/>
</clipPath>
</defs>
</svg>
