<?xml version="1.0" standalone="no"?>
<!DOCTYPE svg PUBLIC "-//W3C//DTD SVG 20010904//EN"
 "http://www.w3.org/TR/2001/REC-SVG-20010904/DTD/svg10.dtd">
<svg version="1.0" xmlns="http://www.w3.org/2000/svg"
 width="1442.000000pt" height="3000.000000pt" viewBox="0 0 1442.000000 3000.000000"
 preserveAspectRatio="xMidYMid meet">

<g transform="translate(0.000000,3000.000000) scale(0.100000,-0.100000)"
fill="#000000" stroke="none">
<path d="M2178 28275 l-38 -26 0 -4932 c0 -6270 0 -8396 0 -14712 0 -2821 0
-5515 0 -5985 l0 -855 25 -23 c23 -20 37 -22 129 -22 121 0 120 -1 174 110 46
93 103 138 184 147 95 10 189 -45 234 -135 15 -31 39 -72 52 -89 l24 -33 115
1 c108 0 117 2 139 24 13 13 24 33 24 43 0 11 18 47 41 81 60 90 153 126 252
97 70 -21 121 -70 158 -153 16 -38 37 -74 46 -81 11 -8 55 -12 131 -12 112 0
114 0 143 29 16 16 29 39 29 51 0 11 11 38 25 58 14 20 25 41 25 47 0 10 96
59 138 70 12 4 47 3 78 -1 49 -6 62 -12 108 -58 32 -31 58 -67 66 -91 7 -22
23 -55 37 -72 l24 -33 118 0 c110 0 119 1 139 23 12 13 22 31 22 41 0 26 64
120 98 145 57 40 145 62 187 46 61 -23 125 -60 130 -76 4 -11 12 -25 19 -31 6
-7 21 -38 31 -68 14 -36 28 -59 45 -67 18 -9 101 -13 315 -13 243 0 294 2 312
15 23 16 41 86 42 165 1 52 18 141 36 185 7 17 29 77 50 135 21 58 45 114 52
125 87 132 123 190 123 198 0 5 16 23 35 40 19 16 35 35 35 43 0 7 9 16 21 19
13 4 18 12 15 21 -4 9 -2 12 5 8 6 -3 23 5 37 18 44 38 110 88 119 88 4 0 22
11 38 25 17 13 67 43 112 65 45 22 85 45 88 50 3 6 19 10 35 10 16 0 31 4 34
9 3 4 28 11 56 15 27 4 50 10 50 14 0 4 10 8 23 8 33 2 158 22 189 29 15 4 36
4 45 0 10 -4 47 -9 83 -11 36 -2 72 -5 80 -7 8 -2 49 -9 90 -16 41 -7 83 -17
92 -22 10 -5 25 -9 33 -9 8 0 23 -4 33 -9 9 -6 51 -24 92 -42 41 -18 82 -39
91 -46 8 -7 25 -13 37 -13 12 0 22 -4 22 -10 0 -5 33 -33 73 -63 280 -209 445
-497 502 -877 9 -58 18 -112 20 -121 11 -34 50 -39 325 -39 265 0 269 0 293
23 13 12 32 44 42 71 62 170 258 216 381 89 29 -30 49 -61 57 -90 6 -25 22
-56 34 -69 21 -23 28 -24 141 -24 111 0 120 1 140 23 12 13 29 44 38 70 23 67
96 140 158 157 63 17 143 2 193 -36 40 -30 93 -109 93 -137 0 -10 13 -32 29
-48 29 -29 31 -29 144 -29 107 0 116 2 140 24 16 15 29 40 33 64 9 56 86 134
154 157 114 38 246 -29 287 -145 10 -29 28 -63 40 -76 21 -23 29 -24 136 -24
129 0 159 13 173 72 8 39 41 93 79 131 38 37 122 61 186 52 75 -10 146 -71
179 -152 42 -104 42 -104 193 -101 127 3 130 4 150 29 15 22 19 43 19 110 0
46 -1 93 -1 104 -1 11 1 82 4 157 5 115 4 140 -10 161 -14 23 -14 25 1 31 13
5 15 15 9 59 -11 77 -13 215 -5 272 4 28 6 54 3 59 -3 5 -6 34 -7 65 -1 55
-17 86 -24 46 -6 -31 -24 -45 -20 -15 3 27 20 50 36 50 6 0 13 12 15 27 4 22
2 1080 -2 1143 -1 8 1 893 3 1965 2 1073 0 1955 -4 1960 -4 6 -3 79 2 162 8
130 7 156 -6 174 -13 19 -13 23 0 36 12 12 13 30 7 92 -6 68 -8 195 -4 261 1
14 0 55 -1 93 -3 66 -18 90 -29 45 -3 -13 -11 -22 -17 -21 -9 2 -12 -651 -12
-2618 0 -1714 -4 -2627 -10 -2639 -6 -10 -19 -22 -30 -25 -16 -5 -8915 -10
-9792 -6 -134 1 -150 3 -168 21 -20 20 -20 33 -20 4826 0 3115 3 4812 10 4824
5 10 22 22 37 27 21 7 9814 11 9916 4 9 0 26 -10 37 -21 20 -20 20 -33 20
-2201 0 -1541 3 -2178 11 -2174 6 4 8 9 5 12 -6 7 19 33 32 33 5 0 11 10 13
23 3 17 3 877 0 1187 0 46 -2 1685 -1 1730 5 669 4 2153 -2 2156 -4 3 -6 22
-3 42 2 20 7 91 9 157 4 93 2 124 -9 139 -12 16 -12 21 1 33 9 10 12 23 8 37
-4 11 -8 122 -8 246 -1 141 -5 226 -11 228 -5 2 -12 -5 -13 -15 -6 -29 -22
-40 -22 -14 0 24 21 51 39 51 14 0 12 -60 17 582 2 321 0 558 -6 572 -5 13 -6
27 -2 31 9 9 11 3897 2 3910 -4 6 -3 79 2 162 8 130 7 156 -6 174 -13 19 -13
23 0 37 12 12 14 28 8 81 -4 36 -8 148 -8 248 -1 115 -5 183 -11 184 -5 0 -13
-10 -16 -23 -3 -13 -11 -22 -17 -21 -9 2 -12 -498 -12 -1983 0 -1292 -4 -1992
-10 -2004 -6 -10 -19 -21 -30 -25 -15 -5 -7748 -9 -9642 -6 -284 1 -299 2
-318 21 -20 20 -20 33 -20 4830 0 4797 0 4810 20 4830 11 11 30 20 43 21 12 1
921 1 2021 0 1774 -1 1998 1 1992 14 -3 9 0 15 9 15 8 0 15 -7 15 -15 0 -12
13 -15 60 -15 33 0 60 4 60 10 0 6 5 10 11 10 5 0 8 -4 5 -9 -4 -5 1172 -9
2857 -10 1574 0 2868 0 2875 -1 6 0 21 -9 32 -20 20 -20 20 -33 20 -2830 0
-1806 3 -2810 10 -2810 5 0 6 7 3 17 -4 11 -3 14 5 9 7 -4 12 -2 12 3 0 6 6
11 14 11 7 0 15 12 18 28 3 21 3 793 0 1182 -1 48 -3 1691 -2 1730 5 593 4
2153 -2 2156 -4 3 -6 22 -3 42 2 20 7 91 9 157 4 93 2 124 -9 139 -12 16 -12
21 1 33 11 11 13 24 8 47 -5 17 -8 129 -8 248 -1 138 -5 218 -11 218 -5 0 -11
-11 -13 -25 -2 -14 -8 -25 -13 -25 -6 0 -9 10 -7 23 3 24 21 47 36 47 5 0 11
10 13 23 2 12 3 274 3 582 -1 308 -1 585 -1 615 4 229 15 216 -190 224 -119 5
-144 -9 -167 -87 -32 -110 -144 -184 -253 -167 -99 16 -139 48 -186 150 -16
36 -38 73 -49 84 -24 23 -114 30 -203 16 -68 -11 -89 -29 -106 -93 -15 -59
-101 -141 -155 -150 -110 -19 -176 2 -236 73 -19 22 -40 58 -47 80 -6 22 -22
52 -35 67 -24 27 -27 28 -137 29 -103 0 -114 -2 -140 -23 -15 -13 -35 -46 -44
-73 -18 -55 -73 -118 -127 -143 -40 -19 -115 -22 -167 -7 -62 18 -136 105
-155 183 -11 46 -58 67 -151 67 -44 0 -97 -5 -117 -10 -34 -10 -41 -18 -78
-95 -57 -119 -108 -155 -222 -155 -97 0 -192 71 -218 163 -8 30 -24 57 -43 73
l-29 25 -275 -3 -275 -3 -22 -26 c-17 -20 -24 -48 -34 -140 -22 -199 -89 -385
-195 -548 -113 -171 -259 -307 -450 -419 -146 -85 -377 -143 -577 -145 -89 -1
-179 8 -214 22 -16 7 -35 10 -42 7 -8 -3 -16 -1 -19 5 -4 5 -12 8 -18 7 -33
-7 -331 134 -390 184 -18 16 -35 28 -40 28 -4 0 -20 12 -36 28 -16 15 -40 36
-53 48 -57 51 -178 192 -178 208 0 3 -16 31 -36 61 -105 165 -166 361 -187
602 -3 38 -32 72 -61 73 -11 1 -147 2 -300 3 l-279 2 -28 -26 c-15 -14 -32
-44 -39 -67 -6 -23 -24 -57 -40 -76 -17 -18 -30 -37 -30 -41 0 -15 -35 -40
-59 -41 -14 -1 -28 -3 -31 -4 -19 -8 -140 5 -162 16 -57 30 -107 93 -127 162
-20 69 -52 83 -178 77 -57 -3 -112 -10 -123 -17 -11 -7 -30 -39 -42 -70 -37
-103 -124 -167 -226 -168 -104 0 -176 53 -217 161 -36 93 -53 102 -190 97
-120 -4 -135 -12 -161 -91 -37 -112 -161 -190 -263 -165 -89 21 -162 82 -178
148 -3 14 -16 39 -29 57 -27 36 -67 46 -187 47 -69 0 -80 -2 -101 -24 -12 -14
-30 -45 -39 -70 -32 -88 -103 -147 -198 -164 -48 -9 -137 24 -183 67 -20 19
-42 57 -56 94 -32 90 -44 97 -154 101 -84 3 -94 1 -128 -23z m9003 -220 c5 3
6 -1 3 -9 -10 -26 -24 -18 -23 12 1 17 3 20 6 9 2 -9 9 -15 14 -12z m-6321
-715 c0 -5 -2 -10 -4 -10 -3 0 -8 5 -11 10 -3 6 -1 10 4 10 6 0 11 -4 11 -10z
m6029 -6 c3 -4 -2 -4 -11 -1 -9 3 -18 1 -21 -6 -2 -6 -6 -4 -10 5 -4 13 -1 16
15 13 11 -3 23 -7 27 -11z m-5949 -34 c0 -5 -2 -10 -4 -10 -3 0 -8 5 -11 10
-3 6 -1 10 4 10 6 0 11 -4 11 -10z m247 -12 c-3 -8 -6 -5 -6 6 -1 11 2 17 5
13 3 -3 4 -12 1 -19z m5753 11 c0 -7 8 -18 17 -24 16 -12 15 -13 -7 -12 -19 2
-25 8 -25 24 0 13 3 23 8 23 4 0 7 -5 7 -11z m247 -11 c-3 -8 -6 -5 -6 6 -1
11 2 17 5 13 3 -3 4 -12 1 -19z m-27 -8 c0 -5 -2 -10 -4 -10 -3 0 -8 5 -11 10
-3 6 -1 10 4 10 6 0 11 -4 11 -10z m-6200 -8 c0 -4 -9 -8 -20 -8 -11 0 -20 4
-20 8 0 4 9 8 20 8 11 0 20 -4 20 -8z m1824 -363 c-3 -5 -10 -7 -15 -3 -5 3
-7 10 -3 15 3 5 10 7 15 3 5 -3 7 -10 3 -15z m-1137 -14 c0 -8 -4 -15 -9 -15
-10 0 -11 14 -1 23 9 10 10 9 10 -8z m6000 0 c0 -8 -4 -15 -9 -15 -10 0 -11
14 -1 23 9 10 10 9 10 -8z m-6137 -7 c0 -4 -4 -8 -9 -8 -6 0 -12 4 -15 8 -3 5
1 9 9 9 8 0 15 -4 15 -9z m6000 0 c0 -4 -4 -8 -9 -8 -6 0 -12 4 -15 8 -3 5 1
9 9 9 8 0 15 -4 15 -9z m-5240 -42 c0 -3 -4 -8 -10 -11 -5 -3 -10 -1 -10 4 0
6 5 11 10 11 6 0 10 -2 10 -4z m-14 -35 c-1 -3 -6 -15 -10 -26 -10 -27 -25 -2
-18 31 3 19 7 22 18 13 8 -6 12 -14 10 -18z m-98 -126 c-2 -10 -7 -12 -17 -5
-13 7 -13 11 -1 25 15 18 24 8 18 -20z m6000 0 c-2 -10 -7 -12 -17 -5 -13 7
-13 11 -1 25 15 18 24 8 18 -20z m-6725 -16 c-9 -9 -12 -7 -10 9 1 14 5 18 11
12 7 -7 6 -14 -1 -21z m6000 0 c-9 -9 -12 -7 -10 9 1 14 5 18 11 12 7 -7 6
-14 -1 -21z m-5674 -22 c-1 -24 -3 -26 -6 -9 -2 12 -9 20 -14 17 -10 -7 -13
18 -3 28 13 13 24 -5 23 -36z m6000 0 l-2 -32 -7 35 c-4 19 -8 26 -9 16 0 -11
-4 -17 -7 -13 -4 3 -4 13 0 22 9 26 26 7 25 -28z m-6369 -17 c0 -5 -2 -10 -4
-10 -3 0 -8 5 -11 10 -3 6 -1 10 4 10 6 0 11 -4 11 -10z m975 0 c8 -13 -5 -13
-25 0 -13 8 -13 10 2 10 9 0 20 -4 23 -10z m5025 0 c0 -5 -2 -10 -4 -10 -3 0
-8 5 -11 10 -3 6 -1 10 4 10 6 0 11 -4 11 -10z m-4810 -4 c0 -2 -7 -7 -16 -10
-8 -3 -12 -2 -9 4 6 10 25 14 25 6z m-582 -31 c-3 -3 -9 2 -12 12 -6 14 -5 15
5 6 7 -7 10 -15 7 -18z m6000 0 c-3 -3 -9 2 -12 12 -6 14 -5 15 5 6 7 -7 10
-15 7 -18z m-5416 -27 c-11 -11 -32 -3 -32 12 0 4 9 6 21 3 13 -4 17 -9 11
-15z m-355 -30 c-3 -8 -6 -5 -6 6 -1 11 2 17 5 13 3 -3 4 -12 1 -19z m6000 0
c-3 -8 -6 -5 -6 6 -1 11 2 17 5 13 3 -3 4 -12 1 -19z m-6367 -28 c0 -5 -2 -10
-4 -10 -3 0 -8 5 -11 10 -3 6 -1 10 4 10 6 0 11 -4 11 -10z m49 -7 c0 -11 -3
-13 -6 -5 -2 6 -9 10 -14 6 -5 -3 -9 0 -9 5 0 6 7 11 15 11 8 0 15 -8 14 -17z
m5997 -7 c2 -13 1 -13 -3 -1 -2 8 -9 13 -14 10 -5 -4 -9 -1 -9 5 0 18 25 5 26
-14z m-6708 -10121 c2 -25 -11 -34 -23 -15 -3 6 -1 10 4 10 6 0 10 3 10 8 -2
10 0 22 4 22 1 0 4 -11 5 -25z m5998 -23 c-4 -3 -12 0 -18 6 -9 9 -9 12 0 12
7 0 11 3 11 8 -3 20 4 24 8 4 3 -13 2 -26 -1 -30z m-3811 -102 c165 -28 314
-77 395 -130 8 -5 31 -18 51 -29 51 -28 196 -145 251 -203 60 -62 154 -193
201 -278 46 -83 79 -172 114 -302 25 -95 27 -118 27 -293 0 -203 -7 -254 -61
-425 -51 -160 -198 -397 -304 -488 -22 -19 -39 -39 -39 -46 0 -6 -12 -17 -27
-24 -16 -6 -62 -36 -103 -67 -41 -30 -102 -68 -135 -84 -108 -52 -160 -74
-182 -77 -12 -2 -30 -7 -40 -12 -10 -6 -55 -16 -101 -22 -45 -7 -82 -16 -82
-20 0 -5 -24 -6 -52 -4 -29 2 -111 6 -183 9 -130 5 -153 10 -300 62 -243 88
-462 255 -591 451 -31 48 -62 92 -68 97 -13 11 -56 101 -56 115 0 5 -13 39
-30 75 -16 36 -30 74 -30 85 0 11 -5 20 -11 20 -5 0 -7 4 -4 10 3 5 -1 30 -10
55 -23 71 -36 305 -22 415 4 36 9 74 10 85 2 11 11 46 20 77 10 31 19 67 21
80 5 40 36 114 99 233 53 102 129 204 211 285 31 30 56 60 56 67 0 7 15 19 33
28 17 8 56 33 85 55 29 22 56 40 61 40 5 0 11 3 13 8 6 15 199 99 272 118 179
48 356 60 511 34z m-2202 -206 c-9 -23 -23 -16 -23 12 0 22 2 24 14 14 8 -6
12 -18 9 -26z m6000 0 c-9 -23 -23 -16 -23 12 0 22 2 24 14 14 8 -6 12 -18 9
-26z m542 -144 c-3 -5 -12 -10 -18 -10 -7 0 -6 4 3 10 19 12 23 12 15 0z
m-6861 -562 c-3 -4 -9 -8 -15 -8 -5 0 -9 4 -9 8 0 5 7 9 15 9 8 0 12 -4 9 -9z
m76 -38 c0 -5 -2 -10 -4 -10 -3 0 -8 5 -11 10 -3 6 -1 10 4 10 6 0 11 -4 11
-10z m6247 -12 c-3 -8 -6 -5 -6 6 -1 11 2 17 5 13 3 -3 4 -12 1 -19z m-27 -8
c0 -5 -2 -10 -4 -10 -3 0 -8 5 -11 10 -3 6 -1 10 4 10 6 0 11 -4 11 -10z
m-170 -42 c60 -28 126 -98 145 -153 19 -56 24 -85 16 -100 -3 -5 -6 -12 -6
-15 0 -3 -9 -29 -20 -58 -31 -84 -136 -152 -224 -145 -136 11 -218 102 -222
249 -2 66 0 73 35 121 43 60 97 98 154 108 23 4 44 11 47 15 3 5 13 6 23 1 9
-4 33 -14 52 -23z m826 -20 c53 -29 102 -94 114 -153 10 -50 11 -145 0 -145
-3 0 -15 -19 -28 -42 -34 -65 -114 -108 -201 -110 -40 -1 -76 4 -91 12 -14 8
-28 14 -32 15 -18 1 -98 100 -103 129 -3 17 -7 43 -9 58 -7 43 35 178 55 178
4 0 10 8 13 18 7 19 89 57 151 70 41 8 73 1 131 -30z m-9044 8 c21 -10 52 -32
69 -50 53 -54 64 -83 64 -173 0 -75 -3 -85 -31 -125 -50 -69 -101 -99 -175
-105 -71 -6 -115 7 -175 54 -78 59 -103 207 -50 297 63 109 192 152 298 102z
m769 9 c65 -23 105 -59 135 -122 24 -48 28 -67 25 -127 -1 -41 -7 -77 -15 -86
-8 -8 -17 -25 -20 -37 -4 -12 -22 -31 -41 -42 -19 -11 -35 -25 -35 -30 0 -5
-31 -14 -70 -21 -60 -10 -76 -9 -114 5 -95 37 -165 125 -170 218 -5 75 8 109
64 170 72 79 153 103 241 72z m826 -15 c59 -34 96 -77 118 -139 38 -108 -7
-225 -109 -285 -36 -21 -57 -26 -114 -26 -60 0 -74 4 -115 31 -61 40 -84 70
-103 137 -20 69 -14 128 20 186 67 115 198 156 303 96z m777 18 c23 -3 82 -58
116 -107 17 -25 24 -51 28 -105 5 -88 -15 -139 -83 -210 l-46 -50 -77 0 c-102
-1 -144 19 -222 110 -14 16 -25 34 -25 39 -1 6 -4 34 -9 63 -12 78 6 131 65
192 75 78 114 88 253 68z m4292 -23 c53 -31 100 -97 114 -161 13 -56 7 -88
-28 -167 -23 -54 -30 -60 -89 -89 -54 -26 -72 -30 -123 -26 -77 6 -144 46
-185 112 -26 43 -30 59 -30 120 0 49 6 82 19 106 67 127 207 172 322 105z
m757 15 c87 -33 144 -106 153 -197 18 -187 -169 -321 -332 -238 -126 64 -169
223 -93 339 36 54 75 84 132 102 58 18 78 17 140 -6z m-4546 -335 c0 -8 -4
-15 -9 -15 -10 0 -11 14 -1 23 9 10 10 9 10 -8z m-137 -7 c0 -4 -4 -8 -9 -8
-6 0 -12 4 -15 8 -3 5 1 9 9 9 8 0 15 -4 15 -9z m6648 -203 c-2 -10 -7 -12
-17 -5 -13 7 -13 11 -1 25 15 18 24 8 18 -20z m-6725 -16 c-9 -9 -12 -7 -10 9
1 14 5 18 11 12 7 -7 6 -14 -1 -21z m6000 0 c-9 -9 -12 -7 -10 9 1 14 5 18 11
12 7 -7 6 -14 -1 -21z m-5674 -22 l-2 -32 -7 35 c-4 19 -8 26 -9 16 0 -11 -4
-17 -7 -13 -4 3 -4 13 0 22 9 26 26 7 25 -28z m5978 11 c-3 -8 -6 -5 -6 6 -1
11 2 17 5 13 3 -3 4 -12 1 -19z m20 -25 c-3 -10 -5 -2 -5 17 0 19 2 27 5 18 2
-10 2 -26 0 -35z m-6367 -3 c0 -5 -2 -10 -4 -10 -3 0 -8 5 -11 10 -3 6 -1 10
4 10 6 0 11 -4 11 -10z m6000 0 c0 -5 -2 -10 -4 -10 -3 0 -8 5 -11 10 -3 6 -1
10 4 10 6 0 11 -4 11 -10z m-5392 -35 c-3 -3 -9 2 -12 12 -6 14 -5 15 5 6 7
-7 10 -15 7 -18z m6000 0 c-3 -3 -9 2 -12 12 -6 14 -5 15 5 6 7 -7 10 -15 7
-18z m-6121 -47 c-3 -8 -6 -5 -6 6 -1 11 2 17 5 13 3 -3 4 -12 1 -19z m6000 0
c-3 -8 -6 -5 -6 6 -1 11 2 17 5 13 3 -3 4 -12 1 -19z m-6652 2 c3 -6 -1 -7 -9
-4 -18 7 -21 14 -7 14 6 0 13 -4 16 -10z m6000 -8 c-3 -3 -11 0 -18 7 -9 10
-8 11 6 5 10 -3 15 -9 12 -12z m1002 -4 c-3 -8 -6 -5 -6 6 -1 11 2 17 5 13 3
-3 4 -12 1 -19z m-6367 -28 c0 -5 -2 -10 -4 -10 -3 0 -8 5 -11 10 -3 6 -1 10
4 10 6 0 11 -4 11 -10z m49 -12 c-1 -18 -2 -19 -6 -5 -2 9 -9 15 -14 12 -5 -4
-9 -1 -9 4 0 6 7 11 15 11 9 0 15 -9 14 -22z m5951 12 c0 -5 -2 -10 -4 -10 -3
0 -8 5 -11 10 -3 6 -1 10 4 10 6 0 11 -4 11 -10z m46 -8 c1 -7 0 -8 -3 -2 -2
5 -9 8 -14 4 -5 -3 -9 0 -9 6 0 15 23 7 26 -8z m-6934 -164 c-7 -7 -12 -8 -12
-2 0 14 12 26 19 19 2 -3 -1 -11 -7 -17z m5999 -1 c-10 -9 -11 -8 -5 6 3 10 9
15 12 12 3 -3 0 -11 -7 -18z m1169 -11 c0 -3 -4 -8 -10 -11 -5 -3 -10 -1 -10
4 0 6 5 11 10 11 6 0 10 -2 10 -4z m-8521 -1089 c12 -15 12 -17 -3 -11 -9 3
-16 13 -16 22 0 8 1 13 3 11 1 -2 9 -12 16 -22z m6001 -2 c11 -13 10 -14 -4
-9 -9 3 -16 10 -16 15 0 13 6 11 20 -6z m-3053 -9857 c-3 -8 -6 -5 -6 6 -1 11
2 17 5 13 3 -3 4 -12 1 -19z m-1697 -32 c0 -11 -19 -15 -25 -6 -3 5 1 10 9 10
9 0 16 -2 16 -4z m70 -55 c0 -11 -4 -22 -9 -25 -5 -3 -8 6 -8 19 0 14 3 25 8
25 5 0 9 -9 9 -19z m247 -3 c-3 -8 -6 -5 -6 6 -1 11 2 17 5 13 3 -3 4 -12 1
-19z m5753 12 c0 -5 -4 -10 -10 -10 -5 0 -10 5 -10 10 0 6 5 10 10 10 6 0 10
-4 10 -10z m247 -12 c-3 -8 -6 -5 -6 6 -1 11 2 17 5 13 3 -3 4 -12 1 -19z
m-6222 -18 c3 -5 1 -10 -4 -10 -6 0 -11 5 -11 10 0 6 2 10 4 10 3 0 8 -4 11
-10z m5975 6 c0 -3 -4 -8 -10 -11 -5 -3 -10 -1 -10 4 0 6 5 11 10 11 6 0 10
-2 10 -4z m-4143 -12 c-3 -3 -12 -4 -19 -1 -8 3 -5 6 6 6 11 1 17 -2 13 -5z
m-267 -134 c0 -5 -5 -10 -11 -10 -5 0 -7 5 -4 10 3 6 8 10 11 10 2 0 4 -4 4
-10z m4657 -85 c0 -8 -4 -12 -9 -9 -5 3 -6 10 -3 15 9 13 12 11 12 -6z m-5540
-150 c0 -8 -4 -15 -9 -15 -10 0 -11 14 -1 23 9 10 10 9 10 -8z m5798 5 c3 -5
1 -10 -4 -10 -6 0 -11 5 -11 10 0 6 2 10 4 10 3 0 8 -4 11 -10z m202 -5 c0 -8
-4 -15 -9 -15 -10 0 -11 14 -1 23 9 10 10 9 10 -8z m-6142 -13 c-3 -3 -11 0
-18 7 -9 10 -8 11 6 5 10 -3 15 -9 12 -12z m6005 6 c0 -4 -4 -8 -9 -8 -6 0
-12 4 -15 8 -3 5 1 9 9 9 8 0 15 -4 15 -9z m-5240 -42 c0 -3 -4 -8 -10 -11 -5
-3 -10 -1 -10 4 0 6 5 11 10 11 6 0 10 -2 10 -4z m-17 -47 c-5 -18 -26 -24
-24 -6 1 4 1 17 1 28 0 17 3 19 14 10 8 -7 12 -21 9 -32z m-128 -68 c3 -5 1
-12 -5 -16 -5 -3 -10 1 -10 9 0 18 6 21 15 7z m33 -46 c-2 -10 -7 -12 -17 -5
-13 7 -13 11 -1 25 15 18 24 8 18 -20z m6000 0 c-2 -10 -7 -12 -17 -5 -13 7
-13 11 -1 25 15 18 24 8 18 -20z m-6725 -16 c-9 -9 -12 -7 -10 9 1 14 5 18 11
12 7 -7 6 -14 -1 -21z m6001 1 c-6 -6 -10 -3 -10 10 0 13 4 16 10 10 7 -7 7
-13 0 -20z m-5675 -23 l-2 -32 -7 35 c-4 19 -8 26 -9 16 0 -11 -4 -17 -7 -13
-4 3 -4 13 0 22 9 26 26 7 25 -28z m6000 0 l-2 -32 -7 35 c-4 19 -8 26 -9 16
0 -11 -4 -17 -7 -13 -4 3 -4 13 0 22 9 26 26 7 25 -28z m-6369 -17 c0 -5 -2
-10 -4 -10 -3 0 -8 5 -11 10 -3 6 -1 10 4 10 6 0 11 -4 11 -10z m6000 0 c0 -5
-2 -10 -4 -10 -3 0 -8 5 -11 10 -3 6 -1 10 4 10 6 0 11 -4 11 -10z m-5392 -35
c-3 -3 -9 2 -12 12 -6 14 -5 15 5 6 7 -7 10 -15 7 -18z m6000 0 c-3 -3 -9 2
-12 12 -6 14 -5 15 5 6 7 -7 10 -15 7 -18z m-6121 -47 c-3 -8 -6 -5 -6 6 -1
11 2 17 5 13 3 -3 4 -12 1 -19z m6000 0 c-3 -8 -6 -5 -6 6 -1 11 2 17 5 13 3
-3 4 -12 1 -19z m-6657 2 c0 -5 -4 -10 -10 -10 -5 0 -10 5 -10 10 0 6 5 10 10
10 6 0 10 -4 10 -10z m1007 -12 c-3 -8 -6 -5 -6 6 -1 11 2 17 5 13 3 -3 4 -12
1 -19z m4993 18 c0 -3 -4 -8 -10 -11 -5 -3 -10 -1 -10 4 0 6 5 11 10 11 6 0
10 -2 10 -4z m1007 -18 c-3 -8 -6 -5 -6 6 -1 11 2 17 5 13 3 -3 4 -12 1 -19z
m-6367 -28 c0 -5 -2 -10 -4 -10 -3 0 -8 5 -11 10 -3 6 -1 10 4 10 6 0 11 -4
11 -10z m49 -12 c-1 -18 -2 -19 -6 -5 -2 9 -9 15 -14 12 -5 -4 -9 -1 -9 4 0 6
7 11 15 11 9 0 15 -9 14 -22z m5951 12 c0 -5 -2 -10 -4 -10 -3 0 -8 5 -11 10
-3 6 -1 10 4 10 6 0 11 -4 11 -10z m49 -7 c0 -11 -3 -13 -6 -5 -2 6 -9 10 -14
6 -5 -3 -9 0 -9 5 0 6 7 11 15 11 8 0 15 -8 14 -17z m231 -177 c0 -3 -4 -8
-10 -11 -5 -3 -10 -1 -10 4 0 6 5 11 10 11 6 0 10 -2 10 -4z"/>
<path d="M3234 25499 c-18 -20 -18 -21 -1 -34 16 -11 21 -11 36 3 13 12 15 22
9 35 -11 22 -21 22 -44 -4z"/>
<path d="M11192 25503 c-6 -13 -4 -23 9 -35 15 -14 20 -14 36 -3 17 13 17 14
-1 34 -23 26 -33 26 -44 4z"/>
<path d="M4219 23734 c-19 -6 -33 -71 -22 -101 3 -10 21 -35 40 -56 18 -20 33
-45 33 -54 0 -9 -16 -34 -36 -54 -32 -33 -36 -43 -36 -89 0 -28 3 -54 7 -58 3
-4 101 -8 216 -10 l210 -3 72 68 c40 37 87 81 106 98 33 29 33 28 -6 -20 -23
-27 -87 -97 -142 -155 -55 -58 -101 -108 -101 -111 0 -4 -18 -23 -39 -42 -59
-53 -371 -400 -371 -413 0 -6 37 -100 83 -210 l82 -199 453 -3 452 -2 0 62 c0
61 -1 63 -33 78 -18 9 -36 27 -41 43 -14 39 3 79 41 97 32 15 33 17 33 78 l0
62 -422 1 c-408 2 -429 5 -157 24 l97 7 208 230 c115 127 225 249 245 272 l37
42 -83 202 c-46 112 -86 206 -90 210 -7 8 -810 13 -836 6z"/>
<path d="M11224 23446 c11 -9 23 -22 27 -28 5 -8 8 -5 6 9 0 12 -3 20 -5 18
-3 -2 -14 0 -26 6 -20 10 -20 10 -2 -5z"/>
<path d="M7469 23426 c-99 -40 -149 -93 -175 -184 -12 -41 -15 -91 -12 -220 3
-160 4 -170 31 -224 56 -113 150 -161 317 -161 86 0 116 4 164 23 109 42 185
136 186 228 l0 43 -97 -3 -98 -3 -18 -40 c-28 -59 -44 -73 -101 -86 -47 -10
-58 -9 -100 9 -68 31 -78 62 -79 237 -1 201 25 245 145 245 71 0 111 -25 133
-84 l18 -46 98 0 99 0 0 42 c0 96 -84 193 -198 228 -94 29 -238 28 -313 -4z"/>
<path d="M8985 23440 l-90 -5 -3 -384 c-1 -275 1 -388 9 -397 9 -11 66 -14
284 -14 151 0 280 3 289 6 13 5 16 22 16 79 0 57 -3 74 -16 79 -9 3 -99 6
-200 6 l-184 0 0 80 0 80 183 2 182 3 0 69 c0 69 0 70 -30 78 -16 5 -97 8
-180 6 l-150 -2 -3 77 -3 77 190 0 c111 0 192 4 196 10 8 14 9 139 1 148 -9 8
-357 10 -491 2z"/>
<path d="M9592 23438 c-7 -7 -12 -40 -12 -85 0 -88 6 -93 116 -93 61 0 80 -4
91 -17 14 -17 14 -17 9 0 -3 9 -1 17 4 17 5 0 8 -124 7 -294 -1 -234 1 -297
12 -310 10 -12 31 -16 91 -16 43 0 85 3 94 6 14 5 16 39 16 279 0 150 3 286 6
303 l6 30 105 4 c78 3 106 7 113 18 13 20 12 131 0 150 -8 13 -58 15 -327 18
-243 2 -321 0 -331 -10z"/>
<path d="M6134 23427 c-3 -8 -4 -43 -2 -78 l3 -64 183 -3 c100 -1 182 -6 182
-11 0 -5 -85 -113 -190 -240 l-190 -232 0 -67 c0 -40 5 -73 12 -80 14 -14 614
-17 636 -3 9 5 12 29 10 82 l-3 74 -187 3 c-104 1 -188 6 -188 10 0 4 84 112
186 241 l185 234 -3 71 -3 71 -313 3 c-257 2 -313 0 -318 -11z"/>
<path d="M6920 23046 c0 -350 2 -395 16 -400 32 -12 171 -6 183 8 8 9 10 122
9 397 l-3 384 -102 3 -103 3 0 -395z"/>
<path d="M8127 23434 c-4 -4 -7 -179 -7 -389 0 -283 3 -384 12 -393 17 -17
162 -16 176 1 7 8 13 71 14 152 l3 139 120 -150 120 -149 101 -3 c78 -2 104 1
113 12 13 15 22 2 -177 259 l-114 147 43 57 c24 31 86 109 136 172 51 64 93
124 93 134 0 15 -12 17 -103 17 l-103 0 -30 -32 c-17 -18 -69 -80 -115 -138
l-84 -105 -5 135 -5 135 -90 3 c-50 1 -94 0 -98 -4z"/>
<path d="M11210 23422 c0 -5 7 -9 15 -9 8 0 15 4 15 9 0 4 -7 8 -15 8 -8 0
-15 -4 -15 -8z"/>
<path d="M11230 23389 c0 -5 -4 -7 -10 -4 -6 4 -10 -12 -10 -39 0 -25 4 -46 9
-46 5 0 7 -12 4 -27 -10 -47 -13 -257 -4 -271 4 -8 15 -10 26 -6 18 7 18 8 -1
15 -17 7 -17 8 -1 8 18 1 25 41 7 41 -5 0 -10 -5 -10 -11 0 -5 -5 -7 -11 -3
-7 4 -7 9 -2 13 27 17 33 56 31 195 -1 115 -4 146 -15 146 -7 0 -13 -5 -13
-11z m12 -45 c-6 -11 -11 -13 -16 -5 -4 6 -2 11 3 11 6 0 11 8 12 18 0 9 3 12
5 5 3 -7 1 -20 -4 -29z m-4 -249 c-3 -3 -9 2 -12 12 -6 14 -5 15 5 6 7 -7 10
-15 7 -18z"/>
<path d="M11233 22965 c0 -11 4 -12 14 -4 7 6 13 13 13 15 0 2 -6 4 -13 4 -8
0 -14 -7 -14 -15z"/>
<path d="M11216 22813 c-6 -14 -5 -15 5 -6 7 7 10 15 7 18 -3 3 -9 -2 -12 -12z"/>
<path d="M11211 22565 c-1 -21 25 -44 40 -34 11 7 11 9 -4 9 -11 0 -15 4 -11
12 4 6 3 8 -4 4 -5 -3 -13 0 -15 6 -3 7 -6 9 -6 3z"/>
<path d="M11210 22416 c0 -86 3 -116 13 -116 9 0 9 -2 -1 -9 -11 -7 -11 -9 2
-14 10 -4 13 -12 9 -23 -6 -16 -7 -16 -14 2 -4 10 -8 -47 -8 -128 -1 -134 1
-147 16 -141 10 4 14 2 10 -4 -3 -5 0 -10 8 -10 11 0 13 23 13 106 0 94 -3
109 -22 130 -11 13 -16 22 -11 18 14 -8 38 30 25 38 -6 3 -10 11 -10 16 0 6 4
8 8 5 4 -2 9 27 10 66 2 50 -1 74 -10 80 -10 6 -10 8 0 8 20 0 13 37 -13 66
l-25 27 0 -117z m30 -50 c0 -3 -4 -8 -10 -11 -5 -3 -10 -1 -10 4 0 6 5 11 10
11 6 0 10 -2 10 -4z m0 -346 c0 -5 -2 -10 -4 -10 -3 0 -8 5 -11 10 -3 6 -1 10
4 10 6 0 11 -4 11 -10z"/>
<path d="M11247 22225 c-4 -8 -2 -17 3 -20 6 -4 10 3 10 14 0 25 -6 27 -13 6z"/>
<path d="M11211 21944 c0 -11 3 -14 6 -6 3 7 2 16 -1 19 -3 4 -6 -2 -5 -13z"/>
<path d="M11225 21870 c-3 -5 -3 -14 0 -20 3 -5 1 -10 -4 -10 -6 0 -11 -5 -11
-11 0 -5 5 -7 10 -4 6 3 10 -1 10 -10 0 -9 -4 -13 -10 -10 -6 4 -10 -10 -10
-35 0 -25 4 -39 10 -35 12 7 14 -8 3 -19 -16 -16 -9 -56 10 -62 13 -4 16 -9 8
-13 -9 -6 -8 -11 4 -21 13 -11 15 -6 15 39 0 28 -4 51 -10 51 -5 0 -10 7 -10
15 0 8 4 15 8 15 5 0 9 7 9 16 0 15 -2 15 -13 0 -9 -13 -14 -14 -20 -5 -4 7
-2 15 4 17 7 2 12 15 12 28 0 14 5 34 10 45 9 15 7 19 -5 19 -9 0 -13 5 -10
10 3 6 4 10 1 10 -3 0 -8 -4 -11 -10z"/>
<path d="M11211 21609 c1 -19 3 -26 6 -16 3 10 9 14 16 10 7 -4 5 2 -3 13 -8
10 -16 21 -17 23 -2 2 -2 -11 -2 -30z"/>
<path d="M11215 21401 c-2 -9 -4 -112 -4 -228 1 -154 5 -211 13 -206 7 5 7 2
-1 -8 -12 -15 -17 -164 -6 -182 3 -5 9 -3 14 4 7 11 9 10 9 -3 0 -9 -4 -18
-10 -20 -5 -1 -14 -32 -18 -67 -6 -40 -15 -69 -26 -76 -9 -7 -16 -17 -16 -23
0 -5 -7 -13 -16 -16 -8 -3 -12 -11 -9 -16 5 -8 11 -8 20 0 8 6 24 10 37 8 13
-2 31 4 40 12 16 13 18 34 17 177 -1 140 -3 162 -18 168 -14 6 -14 7 -1 15 13
7 16 37 18 176 1 95 -3 175 -9 185 -5 11 -6 19 -1 19 10 0 14 55 6 81 -2 9
-11 16 -19 16 -8 0 -17 -7 -20 -16z m30 -29 c-8 -8 -25 10 -19 20 4 6 9 5 15
-3 4 -7 6 -15 4 -17z"/>
<path d="M3233 20625 c-17 -13 -17 -14 1 -34 23 -26 33 -26 44 -3 6 12 4 22
-9 34 -15 14 -20 14 -36 3z"/>
<path d="M4850 20590 c0 -5 5 -10 11 -10 5 0 7 5 4 10 -3 6 -8 10 -11 10 -2 0
-4 -4 -4 -10z"/>
<path d="M4916 20585 c-3 -8 -1 -15 4 -15 6 0 10 7 10 15 0 8 -2 15 -4 15 -2
0 -6 -7 -10 -15z"/>
<path d="M5142 20584 c-15 -17 -2 -26 16 -11 13 9 14 9 8 0 -9 -16 -1 -16 24
-3 14 7 23 6 34 -5 21 -21 34 -19 38 7 3 21 4 21 18 3 9 -11 10 -16 3 -11 -7
4 -13 2 -13 -3 0 -15 27 -14 32 1 5 15 39 19 55 7 7 -6 18 -7 24 -3 8 4 9 3 5
-4 -5 -8 4 -12 28 -12 19 0 37 6 39 13 4 10 6 10 6 0 2 -22 37 -14 49 11 l11
24 -183 -1 c-128 -1 -186 -5 -194 -13z"/>
<path d="M5530 20590 c0 -5 5 -10 11 -10 5 0 7 -5 4 -10 -4 -6 -10 -8 -15 -5
-5 3 -11 1 -15 -5 -7 -11 57 -15 68 -4 10 10 -17 44 -35 44 -10 0 -18 -4 -18
-10z"/>
<path d="M5609 20593 c0 -5 -2 -16 -4 -25 -2 -14 4 -18 26 -18 16 0 29 5 29
11 0 6 -9 9 -20 6 -11 -3 -23 -1 -26 4 -3 5 0 9 5 9 6 0 11 5 11 10 0 11 -20
14 -21 3z"/>
<path d="M5659 20576 c27 -29 90 -35 69 -7 -10 12 -8 12 8 -1 24 -21 100 -24
107 -5 4 10 6 10 6 0 1 -7 5 -13 10 -13 4 0 8 10 7 23 -1 17 -8 23 -33 25 -22
2 -33 -1 -33 -9 0 -10 -3 -10 -12 -1 -7 7 -31 12 -55 12 -36 0 -42 -3 -37 -17
5 -17 5 -17 -6 0 -6 9 -21 17 -32 17 -21 0 -21 0 1 -24z"/>
<path d="M5878 20575 c5 -28 8 -30 26 -12 17 16 9 37 -13 37 -14 0 -17 -6 -13
-25z"/>
<path d="M5925 20590 c-3 -5 -1 -10 4 -10 6 0 11 -5 11 -11 0 -5 -4 -7 -10 -4
-5 3 -10 1 -10 -4 0 -6 7 -11 15 -11 8 0 15 9 15 19 0 23 -16 36 -25 21z"/>
<path d="M6034 20588 c-4 -7 -3 -8 4 -4 7 4 17 4 24 0 7 -4 22 -9 35 -10 18
-2 20 0 10 11 -8 9 -16 10 -24 3 -9 -7 -13 -7 -13 1 0 15 -27 14 -36 -1z"/>
<path d="M6186 20584 c-3 -8 -10 -13 -15 -10 -5 3 -11 0 -14 -8 -4 -10 6 -13
38 -12 24 0 41 4 39 8 -3 4 0 8 5 8 6 0 11 -6 11 -12 0 -9 4 -8 10 2 6 10 10
11 10 3 0 -8 13 -13 31 -13 25 0 30 3 25 18 -6 16 -5 16 7 0 12 -15 32 -17
126 -17 104 0 110 1 95 17 -11 11 -13 17 -5 20 20 7 41 -7 35 -23 -5 -12 3
-15 39 -15 25 0 49 5 52 10 6 9 -8 14 -28 11 -4 0 -6 5 -5 12 2 9 -49 12 -224
14 -195 2 -227 0 -232 -13z"/>
<path d="M6660 20590 c0 -5 7 -7 15 -4 8 4 15 8 15 10 0 2 -7 4 -15 4 -8 0
-15 -4 -15 -10z"/>
<path d="M6700 20585 c0 -17 22 -35 42 -35 10 0 18 5 18 11 0 6 -6 9 -14 6 -8
-3 -20 2 -27 11 -11 14 -11 15 0 5 7 -6 19 -9 26 -7 7 3 16 1 20 -5 3 -6 14
-11 23 -11 14 0 15 2 2 10 -15 10 -16 9 30 23 8 2 -15 4 -52 3 -40 -1 -68 -5
-68 -11z"/>
<path d="M6832 20580 c-16 -26 -15 -30 3 -30 8 0 15 4 15 8 0 5 14 7 30 6 29
-2 40 9 21 20 -5 4 -11 1 -13 -6 -3 -7 -12 -9 -22 -5 -9 4 -14 11 -11 17 3 5
2 10 -2 10 -5 0 -14 -9 -21 -20z"/>
<path d="M6983 20587 c0 -8 6 -14 14 -14 9 0 10 4 2 14 -6 7 -12 13 -14 13 -1
0 -2 -6 -2 -13z"/>
<path d="M7065 20575 c0 -14 3 -25 8 -25 4 0 7 11 7 25 0 14 -3 25 -7 25 -5 0
-8 -11 -8 -25z"/>
<path d="M7118 20588 c7 -7 16 -7 28 0 14 8 13 10 -10 10 -18 0 -24 -4 -18
-10z"/>
<path d="M7231 20581 c-9 -16 -8 -19 6 -17 20 3 28 21 14 30 -5 4 -15 -2 -20
-13z"/>
<path d="M10916 20585 c-9 -26 -7 -32 5 -12 6 10 9 21 6 23 -2 3 -7 -2 -11
-11z"/>
<path d="M11138 20593 c7 -3 16 -2 19 1 4 3 -2 6 -13 5 -11 0 -14 -3 -6 -6z"/>
<path d="M6947 20573 c5 -12 3 -14 -7 -8 -9 5 -11 4 -6 -3 12 -19 35 -14 33 8
-1 11 -7 20 -14 20 -7 0 -10 -7 -6 -17z"/>
<path d="M7155 20577 c-14 -11 -15 -16 -5 -22 9 -5 11 -4 6 3 -4 7 -1 12 8 12
8 0 18 5 21 10 9 14 -8 12 -30 -3z"/>
<path d="M7196 20565 c-3 -8 -1 -15 4 -15 6 0 10 7 10 15 0 8 -2 15 -4 15 -2
0 -6 -7 -10 -15z"/>
<path d="M11106 20563 c-6 -14 -5 -15 5 -6 7 7 10 15 7 18 -3 3 -9 -2 -12 -12z"/>
<path d="M7100 20560 c-13 -8 -12 -10 3 -10 9 0 17 5 17 10 0 12 -1 12 -20 0z"/>
<path d="M3234 20039 c-18 -20 -18 -21 -1 -34 16 -11 21 -11 36 3 13 12 15 22
9 35 -11 22 -21 22 -44 -4z"/>
<path d="M11192 20043 c-6 -13 -4 -23 9 -35 15 -14 20 -14 36 -3 17 13 17 14
-1 34 -23 26 -33 26 -44 4z"/>
<path d="M4001 19537 c-8 -19 -31 -203 -31 -243 0 -23 -46 -64 -73 -64 -31 0
-47 -35 -47 -104 0 -53 1 -54 33 -60 17 -4 40 -8 50 -9 15 -1 17 -8 13 -37 -3
-19 -10 -89 -16 -155 -16 -173 -12 -165 -65 -165 -24 0 -46 -3 -48 -7 -3 -5
-8 -41 -12 -80 l-7 -73 51 0 51 0 -5 -37 c-8 -54 -35 -332 -35 -354 0 -17 9
-19 89 -19 l89 0 5 33 c4 17 14 110 23 205 l18 172 63 0 c60 0 63 -1 63 -24 0
-19 -17 -195 -34 -348 l-4 -38 92 0 93 0 17 168 c27 265 20 242 77 242 55 0
53 -3 64 103 l6 57 -50 0 c-60 0 -57 -15 -36 180 22 201 18 190 74 190 l48 0
7 46 c3 26 6 62 6 80 0 34 0 34 -46 34 l-47 0 6 88 c4 48 10 122 13 165 l7 77
-91 0 -90 0 -11 -51 c-6 -29 -14 -93 -18 -143 -8 -108 -26 -136 -90 -136 -48
0 -48 -1 -28 182 8 75 15 140 15 143 0 3 -41 5 -90 5 -85 0 -91 -1 -99 -23z
m248 -634 c-10 -93 -18 -176 -18 -185 -1 -15 -11 -18 -66 -18 l-64 0 4 28 c2
15 9 81 15 147 6 66 13 137 16 158 l6 37 62 0 62 0 -17 -167z"/>
<path d="M4690 18844 l0 -716 233 4 c219 3 235 5 285 27 31 14 70 43 96 72 64
72 79 135 74 325 -3 144 -4 153 -33 209 -19 38 -45 70 -72 90 -23 16 -42 32
-42 35 -1 3 12 14 28 24 76 52 106 146 99 323 -3 105 -7 126 -32 176 -33 69
-75 102 -157 128 -52 16 -92 19 -270 19 l-209 0 0 -716z m411 476 c41 -43 50
-195 17 -282 -15 -40 -47 -56 -126 -64 l-72 -7 0 191 c0 218 -7 204 100 195
44 -4 60 -10 81 -33z m-21 -563 c60 -21 75 -61 75 -207 0 -134 -12 -182 -48
-202 -11 -6 -58 -13 -104 -16 l-83 -5 -1 34 c-4 120 -4 340 -1 372 l5 37 61
-1 c33 0 77 -5 96 -12z"/>
<path d="M5500 18978 c0 -629 1 -642 54 -732 33 -56 84 -94 158 -117 148 -47
321 -3 392 99 62 91 61 70 64 730 l3 602 -106 0 -105 0 0 -562 c0 -355 -4
-577 -10 -600 -15 -53 -51 -78 -112 -78 -69 0 -102 34 -112 112 -4 31 -7 265
-6 519 1 255 1 497 1 537 l-1 72 -110 0 -110 0 0 -582z"/>
<path d="M6320 18845 l0 -715 110 0 110 0 2 693 c2 380 2 702 0 715 -3 21 -7
22 -113 22 l-109 0 0 -715z"/>
<path d="M6710 18844 l0 -716 233 4 c219 3 235 5 285 27 65 29 125 95 149 164
16 47 18 95 18 522 0 436 -1 474 -19 520 -24 65 -58 109 -107 142 -64 42 -133
53 -356 53 l-203 0 0 -716z m392 505 c72 -19 73 -23 74 -454 1 -455 -2 -495
-38 -532 -24 -24 -36 -27 -111 -31 l-84 -4 -7 32 c-8 43 -8 985 1 993 10 11
124 8 165 -4z"/>
<path d="M7540 18845 l0 -715 295 0 295 0 0 99 0 100 -42 6 c-24 3 -104 4
-179 2 l-137 -4 -5 81 c-3 45 -6 263 -6 486 0 223 0 462 0 533 l-1 127 -110 0
-110 0 0 -715z"/>
<path d="M8229 18910 c-1 -357 -2 -663 -2 -680 0 -16 1 -46 2 -65 l1 -35 109
0 109 0 7 31 c4 18 6 116 4 218 -1 102 -2 225 -1 274 l2 87 103 0 c67 0 107
-4 115 -12 9 -9 12 -9 12 0 0 7 5 12 10 12 7 0 7 -6 1 -19 -6 -10 -8 -21 -5
-24 3 -3 7 -124 9 -269 1 -145 3 -271 4 -280 1 -16 14 -18 116 -18 l115 0 0
715 0 715 -115 0 -115 0 -1 -137 c-1 -282 -6 -429 -14 -447 -6 -14 -5 -17 3
-12 7 4 12 2 12 -3 0 -6 -10 -11 -22 -12 -162 -7 -205 -7 -218 1 -12 7 -14 48
-12 252 2 134 0 269 -4 301 l-6 57 -109 0 -109 0 -1 -650z"/>
<path d="M9085 19518 c-3 -24 -5 -293 -3 -598 3 -618 4 -621 70 -702 21 -26
60 -56 94 -73 56 -28 66 -30 179 -30 114 0 123 1 173 30 64 35 96 71 131 145
l26 55 3 608 3 607 -104 0 c-102 0 -104 -1 -115 -25 -9 -19 -12 -180 -12 -578
0 -534 -1 -553 -20 -585 -37 -61 -105 -69 -156 -18 l-34 34 0 564 c0 309 -3
573 -6 586 -6 21 -11 22 -115 22 l-108 0 -6 -42z"/>
<path d="M9904 19518 c-9 -52 -8 -1316 1 -1358 5 -25 12 -30 49 -35 73 -11
386 2 439 19 97 29 164 97 193 192 9 32 14 96 14 195 0 177 -16 234 -88 311
l-44 47 36 42 c63 74 78 133 74 289 -3 125 -5 139 -32 193 -18 38 -43 69 -69
88 -70 51 -118 59 -353 59 l-212 0 -8 -42z m389 -189 c37 -28 50 -81 46 -187
-4 -87 -6 -93 -35 -123 -35 -35 -105 -50 -143 -30 -20 11 -21 18 -21 176 0
186 -1 184 81 185 32 0 54 -6 72 -21z m21 -597 c35 -32 46 -77 46 -191 0 -60
-4 -121 -10 -135 -14 -38 -66 -66 -123 -66 -90 0 -87 -6 -87 215 l0 195 28 6
c15 3 32 7 37 8 20 5 90 -16 109 -32z"/>
<path d="M11210 17896 c0 -2 9 -6 20 -9 11 -3 18 -1 14 4 -5 9 -34 13 -34 5z"/>
<path d="M11210 17641 c0 -25 -47 -32 -213 -31 -165 0 -172 0 -188 -21 l-17
-22 -6 21 c-6 18 -15 22 -47 22 -22 0 -38 -4 -34 -9 3 -5 1 -12 -5 -16 -5 -3
-10 2 -10 12 0 15 -2 16 -10 3 -5 -8 -10 -10 -10 -5 0 14 -38 17 -46 3 -4 -6
-10 -5 -15 3 -8 12 -11 12 -18 0 -7 -11 -13 -12 -23 -4 -7 6 -46 10 -88 10
-62 -2 -75 -5 -78 -19 -2 -10 1 -18 7 -18 6 0 9 6 7 13 -1 6 -1 9 1 5 3 -5 14
-8 26 -9 21 0 21 -1 2 -9 -18 -8 -17 -9 8 -9 20 -1 26 3 21 12 -6 9 -5 9 7 1
8 -7 28 -12 44 -12 17 0 36 5 44 12 12 8 13 8 7 -1 -4 -7 -2 -13 3 -13 6 0 11
5 11 11 0 8 6 7 17 -2 11 -10 14 -10 9 -1 -4 6 -2 12 3 12 6 0 11 -4 11 -10 0
-5 5 -10 11 -10 5 0 7 6 3 13 -6 9 -5 9 7 0 10 -8 93 -12 288 -13 243 0 276 1
292 16 25 22 24 51 -1 64 -13 7 -20 7 -20 1z"/>
<path d="M3235 17626 c-18 -13 -18 -14 3 -25 24 -13 38 0 25 24 -8 13 -12 13
-28 1z"/>
<path d="M4247 17604 c-13 -13 13 -41 38 -41 14 0 25 2 25 6 0 3 9 12 20 18
16 11 18 10 13 -3 -3 -8 -2 -14 3 -13 5 1 11 1 14 -1 3 -1 16 -3 30 -6 l25 -4
-23 20 c-22 19 -22 19 -2 17 12 -1 26 -9 31 -19 5 -10 21 -18 34 -18 19 0 23
4 20 21 -3 12 -1 18 3 15 4 -4 7 -13 7 -19 0 -8 29 -13 88 -14 51 -1 85 2 82
8 -4 5 -18 7 -33 4 l-27 -5 28 11 c15 6 27 15 27 20 0 6 -6 7 -12 2 -18 -11
-32 -10 -40 2 -5 6 -8 5 -8 -3 0 -9 -5 -10 -17 -3 -23 11 -125 12 -117 0 3 -5
-2 -9 -11 -9 -9 0 -13 5 -10 10 7 12 -112 9 -130 -2 -6 -4 -17 -3 -25 3 -18
10 -25 11 -33 3z m43 -18 c0 -3 -4 -8 -10 -11 -5 -3 -10 -1 -10 4 0 6 5 11 10
11 6 0 10 -2 10 -4z"/>
<path d="M4657 17596 c-13 -33 18 -36 352 -35 249 0 331 3 331 12 0 9 2 9 8 1
11 -18 153 -15 175 4 25 22 21 30 -12 28 -16 0 -27 -4 -24 -9 3 -5 -4 -3 -15
4 -17 11 -24 10 -38 -2 -10 -8 -15 -9 -11 -3 5 8 -12 12 -58 13 -51 1 -65 -2
-65 -14 0 -19 -11 -19 -36 0 -24 18 -38 19 -28 3 6 -10 5 -10 -7 -1 -21 17
-380 18 -391 1 -6 -10 -8 -9 -8 2 0 10 -6 7 -19 -9 l-19 -24 -6 21 c-6 19 -15
22 -66 22 -41 0 -59 -4 -63 -14z"/>
<path d="M5260 17606 c0 -2 7 -6 15 -10 8 -3 15 -1 15 4 0 6 -7 10 -15 10 -8
0 -15 -2 -15 -4z"/>
<path d="M5547 17592 c-27 -29 -21 -33 46 -30 49 2 65 7 75 23 13 19 13 19 9
-2 -5 -21 -1 -23 33 -23 29 0 39 4 43 20 6 23 24 27 24 5 0 -8 -4 -12 -9 -9
-4 3 -8 1 -8 -4 0 -6 73 -10 185 -11 111 0 185 4 185 9 0 6 7 10 15 10 8 0 15
-4 15 -10 0 -5 15 -9 33 -9 l32 1 -30 7 c-22 5 -26 8 -14 13 9 4 26 0 36 -7
15 -11 50 -13 139 -11 144 4 143 4 124 16 -13 8 -13 10 2 10 9 0 20 -4 23 -10
9 -15 25 -12 25 4 0 8 8 16 18 19 9 2 -64 3 -163 3 -99 -1 -193 -5 -208 -9
-19 -5 -26 -4 -22 3 3 6 -3 10 -15 10 -12 0 -19 -4 -16 -8 3 -5 -1 -9 -9 -9
-8 0 -12 4 -9 9 3 4 -78 8 -180 8 -138 0 -186 -3 -189 -12 -4 -10 -6 -10 -6 0
-1 8 -25 12 -84 12 -69 0 -87 -3 -100 -18z m58 -2 c3 -6 -1 -7 -9 -4 -18 7
-21 14 -7 14 6 0 13 -4 16 -10z"/>
<path d="M6566 17593 c-3 -8 -10 -11 -16 -8 -5 3 -10 1 -10 -4 0 -6 1 -11 3
-12 43 -8 88 -9 83 -1 -6 10 30 28 47 24 4 -1 7 3 7 8 0 6 -10 9 -22 7 -35 -6
-58 -18 -53 -27 7 -11 -22 -6 -32 5 -4 4 -3 5 3 2 7 -4 14 -1 17 6 3 8 -1 14
-9 14 -7 0 -16 -7 -18 -14z"/>
<path d="M6691 17597 c-7 -7 -16 -12 -21 -12 -6 0 -11 -4 -12 -9 -2 -5 19 -11
45 -13 38 -3 47 -1 41 9 -6 10 -5 10 7 1 15 -12 160 -13 153 -1 -7 12 4 10 26
-4 24 -15 38 -3 24 20 -12 19 -54 29 -54 13 0 -6 -7 -7 -17 -4 -12 5 -14 3 -9
-8 5 -9 3 -9 -6 2 -16 19 -159 24 -177 6z m149 -12 c0 -7 -8 -12 -17 -11 -24
4 -27 21 -3 23 11 1 20 -4 20 -12z"/>
<path d="M6965 17592 c3 -8 5 -16 5 -18 0 -2 5 -4 11 -4 6 0 9 6 6 13 -6 17
24 18 38 2 13 -15 48 -28 40 -15 -3 6 -1 10 5 10 6 0 8 4 5 10 -3 6 1 7 9 4 9
-3 16 -10 16 -16 0 -5 -5 -6 -12 -2 -7 4 -8 3 -4 -4 9 -15 38 -3 32 14 -3 9 5
12 27 12 29 -1 30 -2 9 -11 -25 -11 -29 -27 -7 -27 8 0 15 5 15 11 0 6 7 8 16
5 11 -4 15 -2 11 8 -4 10 -1 13 9 9 7 -3 14 -1 14 5 0 6 -32 11 -80 11 -46 0
-78 -3 -75 -9 3 -5 1 -11 -5 -15 -5 -3 -10 1 -10 9 0 12 -10 15 -40 13 -29 -1
-39 -6 -35 -15z"/>
<path d="M7220 17594 c0 -8 -5 -14 -11 -14 -5 0 -7 -4 -4 -10 3 -5 11 -10 16
-10 6 0 7 5 4 10 -8 14 8 13 22 -1 9 -9 12 -7 10 9 -1 23 -37 39 -37 16z"/>
<path d="M7627 17591 c-4 -17 -3 -21 5 -13 5 5 8 16 6 23 -3 8 -7 3 -11 -10z"/>
<path d="M7683 17591 c0 -11 5 -17 9 -15 5 3 6 9 3 14 -3 4 1 11 7 13 8 4 7 6
-4 6 -11 1 -16 -6 -15 -18z"/>
<path d="M10252 17590 c3 -23 7 -25 61 -26 36 -1 57 3 57 10 0 6 5 4 10 -4 7
-11 10 -12 10 -2 0 16 -24 42 -38 42 -5 0 -9 -8 -8 -17 0 -10 -7 -18 -19 -20
-15 -1 -16 -1 -2 3 21 7 22 23 1 31 -8 3 -26 -5 -41 -18 -14 -13 -24 -19 -20
-14 3 6 1 17 -4 25 -8 12 -9 9 -7 -10z"/>
<path d="M7270 17592 c0 -13 20 -38 20 -24 0 6 4 11 9 10 5 -2 11 1 13 6 1 5
-7 11 -19 12 -13 2 -23 1 -23 -4z"/>
<path d="M7653 17593 c4 -3 2 -12 -5 -20 -8 -11 -7 -12 6 -7 18 7 22 34 4 34
-6 0 -8 -3 -5 -7z"/>
<path d="M7000 17574 c0 -8 5 -12 10 -9 6 4 8 11 5 16 -9 14 -15 11 -15 -7z"/>
<path d="M7595 17570 c-3 -5 -1 -10 4 -10 6 0 11 5 11 10 0 6 -2 10 -4 10 -3
0 -8 -4 -11 -10z"/>
<path d="M3234 12359 c-18 -20 -18 -21 -1 -34 16 -11 21 -11 36 3 13 12 15 22
9 35 -11 22 -21 22 -44 -4z"/>
<path d="M11192 12363 c-13 -27 20 -56 44 -39 19 14 13 30 -16 46 -15 8 -21 6
-28 -7z"/>
<path d="M6674 11826 c-12 -31 0 -51 31 -51 27 0 30 3 30 30 0 25 -4 30 -28
33 -17 2 -29 -2 -33 -12z"/>
<path d="M5100 11807 c-62 -41 -75 -77 -75 -207 0 -97 3 -121 21 -155 29 -56
74 -80 147 -78 72 1 117 32 142 97 25 64 18 247 -10 295 -41 70 -157 95 -225
48z m150 -52 c37 -33 53 -173 30 -257 -22 -77 -106 -103 -160 -50 -23 23 -29
41 -35 95 -12 114 8 197 54 223 31 17 86 12 111 -11z"/>
<path d="M5457 11822 c-12 -3 -17 -11 -15 -25 3 -20 10 -22 101 -27 l98 -5
-66 -72 c-85 -93 -84 -106 9 -114 79 -7 96 -21 96 -79 0 -47 -23 -68 -82 -76
-52 -7 -103 13 -113 46 -4 14 -15 20 -36 20 -24 0 -29 -4 -29 -24 0 -13 14
-37 31 -54 41 -40 110 -56 179 -41 149 32 162 216 18 253 l-47 12 64 74 c72
83 81 109 38 112 -57 3 -229 3 -246 0z"/>
<path d="M6011 11820 c-11 -6 -15 -47 -18 -182 -1 -95 0 -194 3 -220 l6 -48
114 0 c94 0 122 4 153 20 71 36 89 122 41 189 l-20 30 20 33 c11 18 20 47 20
63 0 37 -31 89 -62 106 -27 15 -237 22 -257 9z m235 -74 c20 -28 17 -66 -7
-87 -25 -22 -95 -34 -144 -25 l-35 7 0 65 0 66 86 -3 c71 -3 88 -7 100 -23z
m-1 -187 c18 -17 28 -63 20 -87 -11 -38 -97 -61 -170 -48 l-35 7 0 75 0 76 85
-3 c60 -3 89 -9 100 -20z"/>
<path d="M7222 11603 l3 -228 25 0 c25 0 25 0 30 118 5 115 6 120 33 143 29
25 75 31 107 14 29 -15 40 -65 40 -177 l0 -104 28 3 27 3 3 115 c3 126 -9 166
-58 202 -33 24 -111 26 -144 5 -23 -15 -24 -15 -30 6 -3 12 -6 46 -6 75 0 51
0 52 -30 52 l-30 0 2 -227z"/>
<path d="M7650 11771 l0 -60 -32 -3 c-25 -2 -33 -8 -33 -23 0 -15 8 -21 33
-23 l32 -3 0 -114 c0 -105 2 -116 24 -141 20 -24 31 -28 77 -29 49 0 54 2 57
23 3 19 -1 22 -32 22 -58 0 -66 17 -66 136 l0 104 45 0 c37 0 45 3 45 19 0 21
-19 31 -61 31 -28 0 -29 2 -29 44 0 60 -8 76 -36 76 -23 0 -24 -3 -24 -59z"/>
<path d="M9232 11603 l3 -228 25 0 25 0 0 225 0 225 -28 3 -27 3 2 -228z"/>
<path d="M9964 11796 c-3 -20 -4 -50 -2 -67 3 -16 2 -32 -2 -34 -3 -2 -26 3
-49 11 -106 36 -191 -37 -191 -166 0 -136 91 -209 201 -162 41 17 49 18 49 5
0 -10 8 -13 28 -11 l27 3 0 225 0 225 -27 3 c-24 3 -28 -1 -34 -32z m-34 -154
c44 -36 43 -169 0 -204 -27 -22 -78 -23 -107 -3 -49 34 -53 156 -7 202 28 28
82 31 114 5z"/>
<path d="M4232 11798 c3 -22 9 -23 102 -28 l99 -5 -67 -73 c-85 -92 -84 -105
7 -112 57 -4 72 -9 88 -29 22 -27 24 -49 8 -84 -14 -32 -49 -47 -103 -47 -46
0 -96 29 -96 56 0 9 -11 14 -30 14 -71 0 -9 -93 76 -115 91 -24 178 5 208 70
20 40 20 66 3 108 -18 42 -39 58 -94 72 l-45 12 66 73 c98 109 97 110 -80 110
-145 0 -145 0 -142 -22z"/>
<path d="M4705 11677 c-60 -86 -100 -152 -100 -167 l0 -25 113 -3 112 -3 0
-54 c0 -51 2 -55 24 -55 26 0 36 21 36 78 0 30 2 32 35 32 31 0 35 3 35 25 0
22 -4 25 -35 25 l-35 0 0 145 0 145 -42 0 -43 -1 -100 -142z m122 -144 c-3 -2
-39 -3 -82 -1 l-77 3 79 110 78 110 3 -109 c1 -60 1 -110 -1 -113z"/>
<path d="M8810 11595 l0 -225 110 0 c169 0 223 32 224 132 1 39 -4 52 -28 77
l-30 31 23 23 c30 33 36 84 14 127 -27 52 -52 60 -190 60 l-123 0 0 -225z
m244 160 c22 -22 28 -49 16 -79 -13 -34 -46 -46 -131 -46 l-69 0 0 70 0 70 84
0 c62 0 89 -4 100 -15z m-4 -185 c25 -13 41 -65 30 -94 -16 -43 -48 -56 -132
-56 l-78 0 0 80 0 80 81 0 c44 0 89 -4 99 -10z"/>
<path d="M6917 11710 c-40 -12 -57 -29 -78 -75 -39 -85 -12 -217 52 -250 37
-20 119 -19 147 1 22 15 22 14 22 -23 0 -44 -6 -55 -37 -72 -41 -21 -89 -14
-116 19 -25 29 -77 43 -77 21 0 -27 23 -63 52 -81 46 -28 141 -27 186 0 54 33
62 66 62 270 0 158 -2 181 -16 187 -9 3 -25 1 -36 -6 -15 -9 -28 -8 -64 4 -50
17 -57 17 -97 5z m104 -67 c30 -18 38 -41 41 -110 1 -45 -19 -85 -53 -104 -25
-13 -82 -4 -98 15 -21 25 -31 80 -25 125 12 80 70 112 135 74z"/>
<path d="M6429 11683 c-10 -27 -11 -240 -1 -290 4 -19 10 -23 31 -21 l26 3 5
117 c6 129 18 158 71 158 40 0 59 10 59 30 0 32 -55 40 -102 16 -23 -12 -27
-12 -32 0 -9 25 -46 16 -57 -13z"/>
<path d="M6682 11693 c-11 -20 -15 -240 -6 -291 6 -29 10 -33 33 -30 l26 3 0
165 c0 162 0 165 -22 168 -13 2 -25 -4 -31 -15z"/>
<path d="M7930 11698 c-89 -48 -104 -227 -24 -298 45 -39 126 -45 187 -13 80
41 90 218 17 288 -26 25 -40 30 -93 32 -38 3 -72 -1 -87 -9z m115 -40 c36 -16
55 -57 55 -120 0 -95 -58 -148 -129 -118 -40 16 -55 51 -54 126 1 68 15 97 58
115 28 11 40 11 70 -3z"/>
<path d="M8247 11703 c-4 -3 -7 -80 -7 -170 l0 -164 28 3 27 3 5 123 c5 115 7
125 29 143 30 25 92 25 122 0 23 -18 24 -27 27 -146 l4 -126 26 3 c27 3 27 4
30 93 5 133 -4 173 -44 213 -33 33 -37 34 -94 30 -37 -3 -66 -11 -78 -22 -19
-16 -20 -16 -25 4 -5 19 -36 28 -50 13z"/>
<path d="M9373 11702 c-8 -5 5 -51 48 -162 33 -85 63 -158 68 -163 5 -5 21 -7
36 -5 26 3 32 14 91 162 35 88 63 160 61 162 -13 11 -46 12 -54 2 -6 -7 -30
-66 -54 -130 -24 -65 -46 -118 -49 -118 -3 0 -25 52 -50 116 -51 135 -66 156
-97 136z"/>
<path d="M11247 11454 c-3 -3 -3 -12 0 -20 3 -8 1 -14 -4 -14 -5 0 -10 -6 -10
-14 0 -27 23 -5 25 24 2 30 0 35 -11 24z"/>
<path d="M10130 11431 c-12 -23 -16 -98 -6 -108 13 -14 39 13 58 61 15 39 16
51 6 57 -22 15 -47 10 -58 -10z"/>
<path d="M11211 11357 c0 -32 3 -56 7 -53 5 3 9 -8 10 -24 0 -16 -3 -32 -8
-35 -5 -3 -9 -59 -8 -125 0 -86 3 -118 12 -113 6 4 5 -1 -3 -10 -11 -14 -11
-18 3 -23 23 -9 28 -2 33 46 3 25 1 40 -6 40 -6 0 -11 -5 -11 -11 0 -5 -5 -7
-10 -4 -7 4 -2 14 11 26 17 14 18 19 7 19 -9 0 -19 8 -23 18 -5 14 -4 15 6 5
24 -24 29 -13 29 73 0 65 -3 83 -12 78 -9 -5 -9 -2 1 9 11 14 11 17 0 17 -10
0 -10 3 -1 12 13 13 17 79 5 77 -21 -3 -32 3 -36 19 -3 9 -5 -9 -6 -41z m29
-12 c-7 -9 -15 -13 -19 -10 -3 3 1 10 9 15 21 14 24 12 10 -5z"/>
<path d="M7093 11023 c-57 -37 -76 -83 -77 -189 -2 -150 24 -207 111 -240 52
-20 129 -14 176 14 39 22 77 76 77 108 0 19 -5 24 -27 24 -22 0 -32 -8 -48
-38 -27 -50 -84 -71 -145 -53 -56 16 -80 67 -79 166 0 126 37 179 122 178 59
-1 83 -16 105 -61 13 -28 23 -37 42 -37 32 0 37 28 12 75 -43 79 -186 108
-269 53z"/>
<path d="M7531 11028 c-67 -46 -76 -67 -79 -196 -3 -106 -1 -121 20 -162 31
-60 75 -85 153 -85 74 0 131 27 160 76 16 27 21 56 23 144 3 99 1 114 -20 154
-34 67 -66 85 -151 89 -62 3 -77 1 -106 -20z m180 -68 c42 -44 50 -176 17
-263 -23 -59 -114 -76 -167 -31 -39 33 -54 89 -49 182 6 85 26 120 79 139 46
16 89 7 120 -27z"/>
<path d="M8130 11032 c-20 -11 -43 -34 -54 -56 -16 -32 -17 -44 -7 -76 6 -21
18 -43 26 -50 13 -11 11 -17 -15 -47 -24 -27 -30 -43 -30 -82 0 -55 23 -92 73
-117 37 -20 143 -22 178 -4 92 48 113 145 44 210 l-25 24 22 24 c31 32 32 110
3 142 -45 51 -150 66 -215 32z m154 -53 c32 -25 34 -64 4 -96 -31 -33 -109
-33 -143 2 -14 13 -25 32 -25 43 0 62 107 96 164 51z m6 -198 c17 -12 26 -29
28 -55 4 -46 -16 -72 -66 -85 -96 -27 -177 54 -127 127 31 43 115 50 165 13z"/>
<path d="M8565 11038 c-75 -41 -101 -111 -93 -253 7 -139 56 -198 163 -198 70
0 113 26 143 83 21 41 23 56 20 160 -3 131 -21 175 -82 204 -39 18 -121 21
-151 4z m124 -54 c36 -25 51 -75 51 -164 0 -127 -30 -179 -103 -180 -61 0 -93
39 -102 123 -12 114 12 208 58 227 35 14 70 11 96 -6z"/>
<path d="M8952 11030 c-37 -23 -72 -75 -72 -107 0 -18 6 -23 26 -23 19 0 28 8
39 34 8 19 25 42 37 50 65 46 154 -19 127 -91 -5 -16 -62 -80 -125 -144 -155
-155 -155 -154 46 -154 152 0 155 0 158 22 4 27 -13 32 -125 35 l-82 3 89 92
c104 107 123 148 99 216 -28 81 -138 115 -217 67z"/>
<path d="M4590 10815 l0 -225 101 0 c169 0 217 28 240 137 14 72 6 189 -17
238 -28 59 -72 75 -209 75 l-115 0 0 -225z m229 161 c41 -21 52 -58 52 -162
-1 -143 -18 -163 -148 -172 l-73 -5 0 177 0 176 70 0 c42 0 82 -6 99 -14z"/>
<path d="M9311 10984 c-48 -38 -70 -61 -67 -71 3 -8 6 -17 6 -19 0 -15 40 2
84 37 l51 41 3 -192 2 -191 28 3 27 3 3 223 2 222 -33 0 c-26 0 -51 -14 -106
-56z"/>
<path d="M9637 10944 c-109 -153 -123 -194 -88 -270 49 -109 229 -119 293 -16
28 45 29 115 3 159 -23 40 -82 73 -129 73 -20 0 -36 3 -36 6 0 3 20 35 45 71
25 35 45 66 45 68 0 3 -15 5 -32 5 -30 0 -39 -8 -101 -96z m134 -133 c23 -23
29 -38 29 -71 0 -89 -100 -133 -169 -74 -27 22 -31 32 -31 74 0 42 4 52 31 74
44 37 101 36 140 -3z"/>
<path d="M5115 10929 c-105 -29 -140 -217 -56 -302 58 -59 196 -52 231 12 25
48 -8 55 -66 16 -20 -14 -47 -25 -60 -25 -35 0 -84 47 -84 81 l0 29 115 0 115
0 0 43 c0 103 -94 174 -195 146z m107 -67 c9 -9 20 -29 23 -44 7 -26 5 -28
-21 -29 -16 0 -47 -2 -69 -4 -54 -6 -75 2 -75 29 0 65 94 97 142 48z"/>
<path d="M5505 10921 c-34 -18 -40 -19 -48 -6 -9 17 -43 20 -52 5 -6 -9 -9
-175 -6 -293 1 -36 3 -38 29 -35 l27 3 5 118 c5 115 6 120 33 143 37 31 81 31
112 -1 23 -22 25 -32 25 -113 0 -49 3 -104 6 -121 6 -27 11 -32 33 -29 l26 3
3 115 c2 94 -1 121 -15 149 -37 72 -110 97 -178 62z"/>
<path d="M6191 10918 c-124 -66 -119 -271 8 -324 40 -17 63 -17 115 -3 66 18
117 89 64 89 -13 0 -38 -9 -56 -20 -47 -29 -96 -26 -121 6 -25 32 -26 38 -5
58 12 12 38 16 115 16 l99 0 0 43 c0 82 -51 139 -135 152 -31 5 -50 1 -84 -17z
m112 -58 c23 -18 25 -24 15 -45 -10 -22 -17 -25 -69 -25 -74 0 -86 20 -41 73
20 23 63 22 95 -3z"/>
<path d="M5755 10920 c-3 -6 1 -34 11 -63 9 -28 16 -54 15 -56 -2 -2 1 -7 6
-10 5 -3 20 -33 33 -66 47 -122 58 -137 92 -133 29 3 32 8 95 162 65 160 67
175 26 176 -19 0 -58 -60 -72 -110 -7 -25 -18 -56 -24 -70 -6 -14 -10 -27 -9
-30 0 -3 -8 -6 -18 -7 -14 -1 -28 22 -61 105 -35 85 -49 108 -66 110 -11 2
-24 -2 -28 -8z"/>
<path d="M6490 10904 c-11 -28 -13 -255 -4 -292 5 -18 13 -22 33 -20 l26 3 5
117 c6 136 16 155 84 160 34 2 42 7 44 25 4 29 -33 39 -88 25 -23 -6 -42 -6
-46 -1 -11 19 -45 9 -54 -17z"/>
<path d="M11236 10798 c3 -5 10 -6 15 -3 13 9 11 12 -6 12 -8 0 -12 -4 -9 -9z"/>
<path d="M6705 10640 c-29 -55 -5 -126 29 -89 7 8 21 34 30 58 14 36 15 46 4
52 -25 16 -48 9 -63 -21z"/>
<path d="M11230 10610 c0 -5 5 -10 11 -10 5 0 7 5 4 10 -3 6 -8 10 -11 10 -2
0 -4 -4 -4 -10z"/>
<path d="M11236 10558 c3 -5 10 -6 15 -3 13 9 11 12 -6 12 -8 0 -12 -4 -9 -9z"/>
<path d="M11216 10532 c-10 -17 -3 -256 8 -267 18 -19 36 -5 36 26 0 18 -4 28
-10 24 -5 -3 -10 -1 -10 4 0 6 4 11 9 11 5 0 9 38 9 85 -1 58 -5 82 -12 78 -6
-3 -5 0 2 8 16 18 17 48 0 31 -7 -7 -17 -12 -22 -12 -6 0 -4 5 4 10 9 6 10 10
3 10 -6 0 -14 -4 -17 -8z m11 -74 c-3 -8 -6 -5 -6 6 -1 11 2 17 5 13 3 -3 4
-12 1 -19z"/>
<path d="M11210 10223 c0 -17 4 -22 13 -17 9 6 9 5 0 -7 -6 -8 -12 -45 -13
-84 -2 -97 -1 -94 -20 -100 -22 -7 -21 -54 2 -77 17 -17 18 -53 19 -595 0
-318 0 -622 -1 -675 -1 -54 2 -103 6 -110 12 -19 14 -38 3 -38 -5 0 -9 -210
-9 -510 0 -497 -1 -511 -20 -530 l-20 -20 20 -20 c20 -20 21 -20 45 -3 l25 18
-3 1394 -2 1394 -22 2 c-18 1 -23 -4 -23 -22z"/>
<path d="M3236 10028 c-10 -6 -16 -22 -16 -48 0 -49 24 -66 51 -39 11 11 19
28 19 39 0 30 -33 59 -54 48z"/>
<path d="M4695 9407 c-20 -16 -28 -35 -32 -69 -5 -44 -8 -47 -37 -50 -23 -2
-31 -8 -31 -23 0 -15 8 -21 32 -23 l32 -3 3 -142 3 -142 28 -3 27 -3 0 135 c0
150 3 156 69 156 24 0 31 4 31 19 0 21 -19 31 -60 31 -36 0 -48 31 -26 65 12
19 25 25 51 25 31 0 35 3 35 25 0 23 -3 25 -49 25 -38 0 -57 -6 -76 -23z"/>
<path d="M6273 9403 c-27 -5 -27 -7 -24 -316 l1 -138 28 3 27 3 3 92 3 92 107
3 c107 3 107 3 107 28 0 25 0 25 -107 28 l-108 3 0 74 0 75 115 0 c114 0 115
0 115 24 0 19 -6 24 -37 30 -41 6 -194 6 -230 -1z"/>
<path d="M6979 9388 c-3 -53 3 -424 8 -430 8 -14 53 -9 53 6 0 11 8 10 37 -5
48 -24 90 -24 131 1 52 32 72 74 72 155 0 144 -64 197 -207 173 l-33 -5 0 63
0 64 -30 0 c-24 0 -30 -4 -31 -22z m199 -166 c28 -22 52 -140 30 -153 -7 -4
-9 -11 -6 -15 12 -12 -27 -42 -63 -49 -30 -5 -41 -2 -65 18 -27 24 -29 30 -29
97 0 66 2 74 28 96 33 28 73 31 105 6z"/>
<path d="M9163 9390 c-36 -22 -63 -66 -63 -105 0 -21 5 -25 28 -25 23 0 30 6
41 36 9 26 23 40 48 50 62 26 113 -5 113 -70 0 -39 -5 -46 -121 -159 -91 -90
-119 -124 -117 -140 3 -21 7 -22 158 -22 143 0 155 1 158 19 6 29 -16 36 -117
36 l-94 0 91 94 c106 110 125 151 101 219 -20 58 -66 87 -138 87 -38 0 -66 -6
-88 -20z"/>
<path d="M9565 9258 c-62 -89 -100 -152 -100 -168 0 -25 1 -25 110 -30 l110
-5 2 -35 c0 -19 1 -43 2 -52 1 -23 46 -24 55 -2 3 9 6 33 6 55 0 38 1 39 35
39 31 0 35 3 35 25 0 22 -4 25 -35 25 l-34 0 -3 143 -3 142 -40 2 -40 3 -100
-142z m123 -91 l-3 -52 -72 -1 c-40 -1 -73 1 -73 3 0 10 27 52 84 132 l61 86
3 -58 c2 -32 2 -81 0 -110z"/>
<path d="M5211 9290 c-19 -4 -48 -23 -65 -41 -30 -32 -31 -37 -31 -119 0 -96
16 -134 68 -165 39 -23 122 -23 166 -1 92 48 94 254 3 308 -36 22 -97 29 -141
18z m106 -65 c28 -20 43 -69 39 -127 -6 -63 -20 -85 -62 -97 -83 -23 -123 31
-116 157 4 67 84 106 139 67z"/>
<path d="M5598 9281 c-30 -15 -38 -16 -42 -5 -3 8 -15 14 -26 14 -27 0 -41
-38 -36 -93 3 -23 5 -88 5 -145 l1 -103 28 3 27 3 5 121 c4 101 8 126 24 143
24 26 66 27 97 2 22 -18 24 -28 29 -143 l5 -123 27 -3 26 -3 4 126 c3 119 4
128 27 146 31 25 77 24 99 -1 13 -16 18 -46 22 -143 l5 -122 28 -3 27 -3 0
129 c0 118 -2 132 -23 163 -42 62 -134 72 -182 19 -18 -20 -18 -20 -37 -1 -14
16 -74 41 -98 41 -3 0 -22 -8 -42 -19z"/>
<path d="M6696 9290 c-92 -29 -135 -161 -86 -268 15 -33 29 -47 62 -62 50 -23
68 -24 122 -9 42 12 86 49 86 74 0 21 -35 19 -68 -5 -45 -33 -91 -33 -124 0
-16 17 -28 39 -28 54 l0 26 115 0 115 0 0 43 c0 103 -97 177 -194 147z m113
-73 c5 -7 12 -24 16 -40 l7 -27 -86 0 c-83 0 -86 1 -86 23 1 31 23 57 57 66
30 8 75 -3 92 -22z"/>
<path d="M8070 9289 c-35 -14 -70 -49 -70 -71 0 -25 34 -23 70 3 22 17 36 20
63 15 58 -11 56 -69 -3 -80 -17 -3 -44 -9 -61 -12 -48 -9 -99 -60 -99 -99 0
-39 28 -78 71 -95 25 -11 43 -11 88 -2 31 6 72 9 92 6 l37 -6 6 48 c9 77 0
207 -17 241 -26 50 -115 76 -177 52z m92 -196 c23 -21 23 -34 -3 -67 -25 -32
-77 -36 -103 -7 -30 33 -4 71 59 84 11 3 22 5 24 6 3 0 13 -6 23 -16z"/>
<path d="M4881 9268 c-4 -13 -6 -50 -5 -83 2 -33 3 -100 3 -148 l1 -88 28 3
27 3 5 117 c6 136 16 155 84 160 36 3 41 6 41 28 0 21 -5 26 -33 28 -18 2 -45
-3 -62 -11 -24 -13 -30 -13 -34 -1 -9 22 -46 17 -55 -8z"/>
<path d="M7357 9265 c-12 -22 -15 -242 -3 -288 6 -24 11 -28 34 -25 l27 3 5
117 c6 134 13 148 82 157 38 5 43 9 43 31 0 25 -1 25 -88 25 -79 1 -90 -2
-100 -20z"/>
<path d="M7602 9263 c-19 -46 -9 -211 15 -253 27 -49 76 -73 133 -64 25 4 69
6 98 6 l52 -1 -2 167 c-3 165 -3 167 -25 170 -31 5 -43 -30 -43 -123 0 -81 -8
-109 -39 -142 -26 -28 -58 -29 -91 -3 -24 18 -25 25 -30 142 l-5 123 -26 3
c-21 2 -28 -3 -37 -25z"/>
<path d="M8353 9264 c-12 -20 -14 -48 -10 -151 5 -150 10 -165 46 -161 l26 3
5 117 c6 134 13 148 82 157 38 5 43 9 43 31 0 25 -1 25 -88 26 -82 1 -90 -1
-104 -22z"/>
<path d="M8587 9283 c-11 -10 -8 -42 5 -66 7 -12 13 -27 14 -33 1 -5 18 -49
39 -97 39 -90 38 -86 19 -215 -6 -43 -6 -44 22 -40 27 3 34 15 123 222 95 221
98 235 54 236 -16 0 -69 -83 -85 -133 -25 -83 -53 -75 -98 30 -18 43 -38 84
-43 91 -10 13 -39 16 -50 5z"/>
<path d="M5690 8571 l0 -60 -32 -3 c-25 -2 -33 -8 -33 -23 0 -15 8 -21 32 -23
l31 -3 4 -119 c3 -108 5 -122 25 -142 18 -17 35 -22 75 -23 47 0 53 2 56 23 3
19 -1 22 -28 22 -65 0 -70 9 -70 130 l0 110 45 0 c37 0 45 3 45 19 0 21 -19
31 -60 31 -28 0 -29 2 -32 58 -3 54 -4 57 -30 60 -28 3 -28 3 -28 -57z"/>
<path d="M7922 8403 l3 -228 25 0 c25 0 25 0 30 118 5 115 6 120 33 143 35 30
78 31 111 2 26 -23 29 -43 35 -246 1 -19 6 -23 29 -20 l27 3 3 118 c3 143 -9
179 -72 208 -52 24 -83 24 -122 0 l-32 -19 -6 36 c-3 21 -6 54 -6 75 0 35 -2
37 -30 37 l-30 0 2 -227z"/>
<path d="M8514 8622 c-20 -13 -27 -47 -31 -144 l-4 -98 33 0 c18 1 44 7 58 15
31 18 72 19 88 3 7 -7 12 -8 12 -4 0 5 7 3 15 -4 8 -7 15 -21 15 -31 0 -11 5
-19 10 -19 6 0 10 -11 10 -25 0 -14 -4 -25 -10 -25 -5 0 -10 -9 -10 -20 0 -13
-12 -26 -35 -37 -47 -22 -107 -5 -132 37 -22 37 -73 44 -73 10 0 -61 76 -120
156 -120 54 0 124 37 148 79 27 47 26 122 -1 159 -32 43 -80 66 -142 67 -31 1
-59 -4 -63 -9 -9 -13 -10 40 -2 81 l6 29 91 3 c101 3 107 4 107 30 0 13 -10
21 -31 25 -43 8 -202 7 -215 -2z"/>
<path d="M6460 8395 l0 -225 25 0 c14 0 26 1 27 3 0 1 4 74 7 161 l6 160 49
-95 c27 -52 53 -100 59 -107 24 -30 50 -7 101 90 28 53 55 100 59 104 4 4 7
-66 7 -155 l0 -162 28 3 27 3 3 223 2 223 -32 -3 c-30 -3 -36 -11 -97 -130
-36 -70 -69 -128 -73 -128 -4 0 -37 59 -73 130 -62 122 -68 130 -96 130 l-29
0 0 -225z"/>
<path d="M7035 8505 c-41 -15 -75 -47 -75 -71 0 -23 40 -16 73 12 25 21 37 24
66 19 41 -7 61 -28 61 -62 0 -15 -6 -23 -17 -24 -10 0 -31 -3 -48 -5 -111 -18
-155 -49 -155 -112 0 -87 117 -126 205 -68 24 16 25 15 25 -4 0 -15 7 -20 25
-20 l25 0 0 130 c0 95 -4 139 -15 159 -23 46 -105 68 -170 46z m125 -199 c0
-53 -37 -91 -89 -91 -46 0 -88 32 -78 59 12 32 52 48 160 65 4 0 7 -14 7 -33z"/>
<path d="M7635 8505 c-48 -17 -71 -43 -86 -98 -25 -93 10 -202 73 -228 73 -30
174 -5 203 51 20 39 19 47 -7 55 -16 6 -28 -1 -52 -29 -25 -29 -38 -37 -68
-38 -47 -2 -74 22 -89 75 -35 130 73 222 155 132 49 -53 90 -43 66 16 -25 60
-121 91 -195 64z"/>
<path d="M5963 8491 c-46 -29 -66 -74 -66 -151 0 -100 33 -151 111 -168 79
-18 144 9 173 71 35 78 21 182 -31 232 -26 25 -40 30 -93 33 -49 2 -69 -1 -94
-17z m122 -33 c36 -16 55 -57 55 -120 0 -95 -58 -148 -129 -118 -40 16 -56 53
-55 126 0 67 16 97 59 115 28 11 40 11 70 -3z"/>
<path d="M7327 8503 c-4 -3 -7 -80 -7 -170 l0 -164 28 3 27 3 5 115 c3 63 10
124 16 134 8 14 27 22 60 25 37 5 50 10 52 25 8 38 -59 49 -101 16 -25 -20
-25 -20 -30 0 -5 19 -36 27 -50 13z"/>
<path d="M3233 7485 c-17 -13 -17 -14 1 -34 23 -26 33 -26 44 -3 6 12 4 22 -9
34 -15 14 -20 14 -36 3z"/>
<path d="M5322 7453 c-6 -2 -10 -9 -6 -14 3 -5 0 -9 -6 -9 -6 0 -9 -4 -5 -9 3
-5 75 -10 161 -10 104 -1 153 2 149 9 -3 5 3 10 14 10 12 0 21 -4 21 -10 0 -5
4 -10 8 -10 5 0 9 7 9 15 0 8 -4 12 -9 9 -4 -3 -8 2 -8 12 0 14 -2 15 -17 3
-9 -8 -14 -9 -11 -4 8 14 -55 15 -64 1 -6 -8 -8 -7 -8 2 0 9 -28 12 -107 11
-60 0 -114 -3 -121 -6z m31 -20 c-3 -7 -8 -13 -12 -13 -4 0 -8 6 -8 13 0 8 6
14 13 14 7 0 10 -6 7 -14z"/>
<path d="M5669 7452 c6 -2 11 -12 11 -22 0 -13 6 -18 23 -16 13 1 28 6 35 10
7 4 12 4 12 -1 0 -4 14 -9 30 -10 36 -3 80 31 53 41 -22 9 -30 7 -15 -3 11 -7
11 -9 -2 -14 -11 -4 -16 -1 -16 11 -1 16 -1 16 -11 0 -12 -21 -34 -24 -26 -4
4 11 -6 14 -50 13 -31 -1 -51 -3 -44 -5z m41 -11 c0 -6 -4 -13 -10 -16 -5 -3
-10 1 -10 9 0 9 5 16 10 16 6 0 10 -4 10 -9z"/>
<path d="M5936 7448 c4 -6 0 -14 -7 -19 -9 -6 -10 -9 -2 -9 7 0 17 8 23 18 9
15 10 14 5 -5 -4 -14 -2 -23 5 -23 18 0 7 43 -13 46 -9 1 -14 -2 -11 -8z"/>
<path d="M6290 7450 c-13 -8 -12 -10 3 -10 9 0 17 5 17 10 0 12 -1 12 -20 0z"/>
<path d="M6339 7447 c-9 -7 -14 -18 -11 -25 3 -10 7 -10 20 0 9 7 13 8 9 2 -5
-8 18 -12 80 -13 74 -1 84 0 74 13 -10 11 -9 16 6 24 13 8 -6 11 -72 11 -53 0
-96 -5 -106 -12z m76 -17 c3 -5 1 -10 -4 -10 -6 0 -11 5 -11 10 0 6 2 10 4 10
3 0 8 -4 11 -10z"/>
<path d="M6540 7444 c0 -9 -6 -11 -17 -7 -16 6 -16 5 1 -12 14 -14 21 -16 24
-7 2 6 8 12 13 12 6 0 7 -4 4 -10 -3 -5 1 -10 9 -10 9 0 16 4 16 9 0 5 7 11
15 15 8 3 14 0 12 -7 -1 -9 36 -12 146 -13 147 -2 159 1 139 33 -10 16 -281
15 -301 -1 -11 -8 -13 -8 -8 1 5 8 -2 11 -23 11 -18 -1 -30 -6 -30 -14z m106
-21 c-10 -10 -19 5 -10 18 6 11 8 11 12 0 2 -7 1 -15 -2 -18z"/>
<path d="M6915 7451 c-3 -5 -1 -12 5 -16 6 -4 8 -11 5 -16 -4 -5 6 -9 21 -9
l26 0 -23 21 c-13 11 -19 18 -12 15 6 -4 14 -2 18 4 3 5 -3 10 -14 10 -11 0
-22 -4 -26 -9z"/>
<path d="M6967 7446 c-4 -10 -1 -13 8 -9 8 3 12 9 9 14 -7 12 -11 11 -17 -5z"/>
<path d="M7000 7440 c-5 -10 -10 -21 -10 -24 0 -3 70 -6 155 -6 87 0 155 4
155 9 0 38 -9 41 -151 40 -126 0 -140 -2 -149 -19z m30 -11 c0 -5 -7 -9 -15
-9 -9 0 -12 6 -9 15 6 15 24 11 24 -6z"/>
<path d="M7300 7449 c0 -5 4 -9 10 -9 5 0 7 -7 4 -15 -10 -24 12 -17 23 7 8
19 10 20 16 4 5 -12 3 -15 -6 -10 -9 5 -8 3 1 -7 11 -12 14 -12 22 1 9 13 10
13 10 0 0 -12 2 -13 9 -1 7 11 9 11 13 0 3 -8 9 -11 13 -6 5 4 6 10 3 13 -5 5
-14 7 -48 13 -3 1 1 5 8 10 9 5 -4 8 -32 8 -25 0 -46 -4 -46 -8z"/>
<path d="M7422 7438 c7 -13 13 -24 14 -26 3 -7 34 11 34 20 0 5 -4 7 -9 3 -5
-3 -16 2 -24 10 -22 22 -29 18 -15 -7z"/>
<path d="M7448 7453 c7 -3 16 -2 19 1 4 3 -2 6 -13 5 -11 0 -14 -3 -6 -6z"/>
<path d="M7503 7447 c-13 -7 -23 -19 -23 -27 0 -12 2 -13 9 -1 6 8 14 10 22 5
8 -5 25 -10 37 -12 17 -2 22 1 16 10 -6 10 -4 10 9 -1 15 -12 21 -9 18 11 0 4
6 5 15 1 13 -5 13 -7 2 -14 -9 -6 -4 -9 15 -9 15 0 27 5 27 11 0 5 5 7 10 4 6
-3 13 1 16 10 5 12 9 13 14 5 4 -7 13 -9 19 -6 21 13 11 26 -20 26 -21 0 -28
-4 -23 -12 6 -10 4 -10 -7 -2 -19 15 -128 15 -156 1z m40 -11 c4 -10 1 -13 -8
-9 -8 3 -12 9 -9 14 7 12 11 11 17 -5z"/>
<path d="M7780 7450 c0 -12 29 -45 35 -39 2 2 -5 15 -16 28 -10 13 -19 18 -19
11z"/>
<path d="M7836 7449 c2 -4 0 -9 -6 -11 -6 -2 -6 -8 0 -18 9 -13 11 -13 20 0
14 22 12 37 -5 37 -8 0 -12 -4 -9 -8z"/>
<path d="M7925 7444 c-17 -13 -17 -14 -1 -14 10 0 15 -5 11 -12 -4 -7 0 -5 8
5 17 21 28 22 21 2 -4 -8 -1 -15 5 -15 6 0 11 5 11 11 0 5 4 8 9 5 5 -3 12 2
15 11 4 10 4 15 1 11 -4 -3 -19 -3 -34 2 -18 5 -33 3 -46 -6z"/>
<path d="M8043 7438 c1 -10 2 -18 4 -18 1 0 7 8 12 18 7 14 6 19 -4 19 -7 0
-13 -9 -12 -19z"/>
<path d="M8115 7450 c-3 -5 -1 -10 4 -10 6 0 11 5 11 10 0 6 -2 10 -4 10 -3 0
-8 -4 -11 -10z"/>
<path d="M8175 7451 c-3 -5 -1 -12 5 -16 5 -3 10 1 10 9 0 18 -6 21 -15 7z"/>
<path d="M7740 7440 c0 -5 7 -7 15 -4 8 4 15 8 15 10 0 2 -7 4 -15 4 -8 0 -15
-4 -15 -10z"/>
<path d="M6220 7425 c-7 -9 -8 -15 -2 -15 5 0 12 7 16 15 3 8 4 15 2 15 -2 0
-9 -7 -16 -15z"/>
<path d="M5835 7420 c-2 -3 5 -6 15 -7 11 -1 22 2 25 7 3 5 -4 8 -16 7 -11 -1
-22 -4 -24 -7z"/>
<path d="M6015 7420 c3 -5 11 -10 16 -10 6 0 7 5 4 10 -3 6 -11 10 -16 10 -6
0 -7 -4 -4 -10z"/>
<path d="M7700 7420 c-17 -5 -9 -7 29 -8 29 0 51 1 48 4 -9 9 -50 11 -77 4z"/>
<path d="M8118 7413 c7 -3 16 -2 19 1 4 3 -2 6 -13 5 -11 0 -14 -3 -6 -6z"/>
<path d="M5880 6931 c0 -6 4 -13 10 -16 6 -3 7 1 4 9 -7 18 -14 21 -14 7z"/>
<path d="M7310 6932 c0 -4 9 -8 20 -9 11 -1 20 2 20 5 0 4 -9 8 -20 9 -11 1
-20 -2 -20 -5z"/>
<path d="M7560 6920 c5 -9 6 -20 3 -24 -3 -3 -1 -6 6 -6 8 0 11 7 7 15 -3 8 0
15 6 15 15 0 1 13 -17 16 -11 2 -12 -2 -5 -16z"/>
<path d="M7600 6931 c0 -5 -3 -18 -6 -28 -5 -17 -5 -17 6 0 6 10 16 14 23 10
7 -4 17 -8 22 -9 6 -1 22 -4 37 -7 25 -5 27 -4 18 13 -13 25 -36 39 -27 18 4
-11 1 -15 -11 -13 -9 2 -21 4 -25 4 -5 1 -5 6 -2 11 3 6 -3 10 -14 10 -12 0
-21 -4 -21 -9z"/>
<path d="M7833 6914 c0 -17 2 -22 7 -13 5 6 6 18 3 26 -8 19 -10 16 -10 -13z"/>
<path d="M7868 6934 c10 -5 9 -10 -4 -25 -21 -23 -9 -25 14 -3 15 15 16 15 22
-2 7 -19 17 -9 16 15 -1 8 -14 16 -31 17 -16 2 -24 1 -17 -2z"/>
<path d="M7944 6923 c3 -7 1 -13 -4 -13 -6 0 -10 -4 -10 -8 0 -5 7 -9 14 -9 8
0 14 5 13 11 -1 6 3 10 9 9 6 -1 11 4 11 10 0 7 -9 13 -19 13 -11 0 -16 -6
-14 -13z"/>
<path d="M5944 6919 c-4 -7 -3 -9 4 -5 6 3 13 -2 15 -11 4 -16 5 -16 6 -1 1
21 -15 32 -25 17z"/>
<path d="M5991 6914 c0 -11 3 -14 6 -6 3 7 2 16 -1 19 -3 4 -6 -2 -5 -13z"/>
<path d="M7484 6918 c-4 -7 -3 -8 5 -4 6 4 20 2 29 -6 15 -12 16 -11 3 5 -16
20 -27 22 -37 5z"/>
<path d="M3234 6899 c-18 -20 -18 -21 -1 -34 16 -11 21 -11 36 3 13 12 15 22
9 35 -11 22 -21 22 -44 -4z"/>
<path d="M5775 6910 c-3 -5 -1 -10 4 -10 6 0 11 5 11 10 0 6 -2 10 -4 10 -3 0
-8 -4 -11 -10z"/>
<path d="M8796 6903 c-6 -14 -5 -15 5 -6 7 7 10 15 7 18 -3 3 -9 -2 -12 -12z"/>
<path d="M11192 6903 c-6 -13 -4 -23 9 -35 15 -14 20 -14 36 -3 17 13 17 14
-1 34 -23 26 -33 26 -44 4z"/>
<path d="M6060 6899 c0 -5 5 -7 10 -4 6 3 10 8 10 11 0 2 -4 4 -10 4 -5 0 -10
-5 -10 -11z"/>
<path d="M7385 6900 c-2 -3 5 -6 15 -7 11 -1 22 2 24 5 3 4 -4 8 -15 8 -11 0
-22 -3 -24 -6z"/>
<path d="M6511 6622 c-8 -15 -5 -24 14 -42 42 -39 28 -42 -24 -5 -50 36 -75
43 -86 24 -6 -9 13 -43 67 -114 l23 -30 -35 26 c-88 64 -99 71 -109 65 -19
-12 -12 -37 24 -87 39 -54 36 -63 -7 -22 -26 25 -30 26 -44 11 -15 -14 -15
-21 0 -69 38 -132 163 -282 283 -341 61 -30 75 -33 150 -31 l83 1 -31 -44
c-95 -139 -111 -306 -44 -458 14 -31 25 -59 25 -62 0 -3 -70 -77 -155 -164
-95 -97 -155 -165 -155 -177 0 -37 38 -73 77 -73 34 0 49 12 189 151 l152 152
50 -31 c162 -99 347 -91 525 25 l27 18 154 -154 c132 -132 159 -154 185 -154
43 0 71 28 71 71 0 32 -14 50 -158 196 l-159 161 26 60 c23 53 26 74 26 176
l0 116 -43 86 c-24 48 -41 91 -38 96 3 4 27 5 53 0 104 -16 206 26 307 126 34
33 78 90 99 125 40 69 73 163 62 180 -10 16 -41 11 -60 -10 -30 -34 -28 -15 5
33 49 74 35 107 -28 63 -20 -14 -48 -34 -62 -43 -27 -19 -26 -18 29 55 57 74
22 96 -60 37 -54 -39 -63 -36 -22 7 25 26 26 30 11 44 -15 15 -21 15 -73 -1
-79 -25 -167 -81 -237 -151 -104 -102 -148 -207 -129 -306 11 -64 -3 -77 -56
-50 -128 65 -294 69 -411 8 -47 -24 -62 -10 -51 49 22 115 -41 241 -175 353
-55 46 -171 107 -223 117 -25 5 -34 2 -42 -13z m148 -59 c30 -16 89 -60 131
-100 110 -104 153 -203 131 -303 -8 -35 -7 -48 4 -60 12 -14 10 -19 -18 -40
-29 -23 -41 -25 -127 -25 -80 0 -102 4 -142 24 -125 64 -242 204 -283 340 l-8
25 32 -27 c26 -22 36 -25 52 -17 25 14 24 28 -6 73 -31 45 -26 47 25 6 66 -53
104 -15 51 51 -41 51 -39 56 6 25 45 -30 59 -31 73 -6 8 16 5 26 -15 50 l-26
30 33 -10 c18 -5 57 -21 87 -36z m1197 6 c-21 -24 -24 -34 -16 -50 14 -25 28
-24 73 6 45 31 47 26 7 -24 -31 -39 -32 -64 -3 -75 9 -4 25 0 37 9 12 8 32 23
45 32 24 18 24 18 -3 -23 -15 -23 -24 -48 -21 -57 12 -28 37 -29 67 0 33 32
33 32 9 -35 -28 -76 -72 -140 -144 -209 -100 -97 -196 -135 -287 -114 -35 8
-48 7 -60 -4 -13 -11 -20 -9 -49 15 -31 27 -32 30 -18 50 12 17 13 29 5 58
-23 83 14 182 104 278 69 73 147 128 221 154 28 10 54 19 55 19 2 1 -8 -13
-22 -30z m-528 -457 c110 -35 211 -123 264 -232 28 -57 33 -78 36 -165 3 -84
2 -98 -9 -87 -8 7 -55 77 -105 155 -50 78 -95 142 -100 142 -5 0 -24 -23 -44
-52 -19 -29 -37 -52 -40 -53 -3 0 -31 41 -63 90 -32 50 -63 90 -70 90 -7 0
-37 -41 -67 -90 -30 -49 -58 -90 -61 -90 -3 0 -23 25 -43 56 -43 64 -46 63
-97 -19 -18 -29 -60 -95 -93 -146 l-61 -95 -8 43 c-18 88 27 230 100 319 104
127 299 184 461 134z m-112 -179 c7 -10 14 -24 14 -32 0 -11 -4 -9 -15 5 -15
19 -15 19 -30 0 -21 -28 -30 -13 -10 18 20 31 24 31 41 9z m-202 -113 c-3 -2
-10 3 -16 13 -9 18 -11 18 -29 1 -23 -21 -24 -12 -3 22 l17 25 18 -28 c10 -15
16 -30 13 -33z m200 43 c5 -12 9 -14 18 -5 7 7 15 12 19 12 4 0 28 -35 55 -77
26 -43 54 -88 62 -100 13 -21 8 -20 -79 14 -77 30 -97 34 -118 26 -121 -50
-151 -61 -151 -57 0 7 101 167 116 183 11 12 16 12 28 2 13 -11 17 -10 22 3 8
21 20 20 28 -1z m230 -43 c-3 -2 -10 3 -16 13 -9 18 -11 18 -29 1 -23 -21 -24
-12 -3 22 l17 25 18 -28 c10 -15 16 -30 13 -33z m-420 -31 c25 21 21 -14 -6
-52 -12 -18 -22 -33 -23 -34 0 -1 -38 -18 -84 -38 -52 -22 -81 -30 -78 -22 3
8 26 47 52 86 40 63 48 71 61 60 13 -11 18 -10 26 5 9 17 10 17 23 0 11 -16
15 -16 29 -5z m429 -1 c12 11 21 3 54 -50 22 -35 45 -73 52 -86 12 -22 11 -22
-21 -8 -18 8 -55 23 -83 34 -57 23 -117 94 -96 115 8 8 11 8 11 -1 0 -18 27
-14 34 5 6 14 8 14 20 -3 11 -15 17 -16 29 -6z m-275 -218 l-3 -40 -77 45
c-43 25 -78 50 -78 55 0 4 35 22 78 39 l77 29 3 -44 c2 -25 2 -63 0 -84z m161
80 c24 -12 41 -23 39 -25 -1 -2 -37 -23 -79 -48 l-77 -45 -6 40 c-4 23 -4 60
0 84 l6 42 37 -13 c21 -7 57 -23 80 -35z m-263 -99 c60 -35 113 -66 117 -69
13 -7 247 138 247 153 0 12 5 12 28 4 83 -31 142 -63 142 -77 0 -30 -70 -139
-117 -183 -26 -25 -74 -57 -105 -72 -59 -28 -148 -47 -148 -31 0 5 45 72 100
149 55 76 100 143 100 147 0 20 -43 3 -138 -56 l-104 -64 -111 64 c-62 35
-115 64 -119 64 -21 0 0 -39 83 -151 125 -170 122 -164 63 -155 -117 16 -248
116 -306 233 -17 35 -29 66 -26 68 3 3 43 21 89 40 75 31 85 32 90 17 4 -9 55
-46 115 -81z m223 -131 c-34 -50 -65 -92 -69 -95 -11 -7 -22 87 -11 98 7 7
130 83 139 86 2 1 -25 -40 -59 -89z m-119 -54 l0 -59 -48 64 c-26 35 -59 79
-72 98 l-24 34 72 -38 72 -39 0 -60z m578 -98 c78 -80 142 -150 142 -156 0
-16 -37 -52 -52 -52 -6 0 -82 70 -167 155 l-156 154 29 30 c21 22 33 28 45 21
9 -4 80 -73 159 -152z m-898 62 c-10 -14 -74 -80 -143 -147 -96 -96 -130 -123
-151 -123 -19 0 -30 7 -38 26 -11 24 -5 32 143 180 l154 154 27 -32 c26 -32
26 -33 8 -58z"/>
<path d="M6476 6281 c-8 -13 52 -97 92 -129 58 -45 97 -62 147 -62 52 0 105
23 105 45 0 19 -19 19 -44 0 -26 -20 -89 -19 -127 1 -42 21 -105 79 -130 120
-21 34 -33 41 -43 25z"/>
<path d="M7891 6232 c-72 -102 -182 -150 -246 -108 -33 21 -53 11 -29 -15 36
-40 111 -45 178 -12 64 33 166 149 151 173 -10 17 -19 11 -54 -38z"/>
<path d="M11218 5553 c7 -3 16 -2 19 1 4 3 -2 6 -13 5 -11 0 -14 -3 -6 -6z"/>
<path d="M11227 5400 c8 -17 19 -27 24 -24 6 4 4 13 -5 23 -9 10 -13 21 -9 24
3 4 -1 7 -10 7 -14 0 -14 -3 0 -30z"/>
<path d="M11210 5342 c0 -31 5 -52 12 -54 10 -4 10 -10 2 -29 -7 -14 -12 -82
-13 -152 -2 -108 0 -127 13 -127 10 0 13 -6 10 -15 -4 -8 -2 -15 3 -15 18 0
22 12 13 36 -6 15 -6 24 0 24 6 0 10 11 10 25 0 14 -5 25 -11 25 -6 0 -8 -7
-4 -17 4 -13 3 -15 -5 -7 -11 11 -4 44 10 44 4 0 8 43 9 96 2 76 -1 94 -11 88
-10 -5 -11 -4 0 7 20 22 15 41 -10 35 l-23 -6 23 11 c12 7 22 21 22 33 -1 21
-1 21 -15 2 -8 -11 -18 -16 -22 -12 -4 4 -1 11 6 16 12 7 11 11 -2 25 -16 15
-17 13 -17 -33z m30 -152 c0 -5 -2 -10 -4 -10 -3 0 -8 5 -11 10 -3 6 -1 10 4
10 6 0 11 -4 11 -10z m-2 -95 c-3 -3 -9 2 -12 12 -6 14 -5 15 5 6 7 -7 10 -15
7 -18z"/>
<path d="M6460 4885 l0 -85 65 0 c58 0 65 2 65 20 0 17 -7 20 -45 20 -56 0
-64 25 -9 27 41 1 49 6 41 28 -4 9 -19 15 -42 15 -19 0 -35 5 -35 10 0 6 20
10 45 10 38 0 45 3 45 20 0 18 -7 20 -65 20 l-65 0 0 -85z"/>
<path d="M6608 4964 c-12 -11 4 -34 23 -34 16 0 19 -8 19 -42 0 -62 9 -88 31
-88 17 0 19 8 19 65 0 63 1 65 26 65 19 0 25 5 22 18 -3 14 -16 18 -69 20 -35
2 -68 0 -71 -4z"/>
<path d="M6770 4885 c0 -78 2 -85 20 -85 15 0 20 7 20 29 0 24 5 29 30 33 36
5 40 3 40 -34 0 -21 5 -28 20 -28 16 0 20 7 21 33 2 59 7 98 12 104 9 8 -19
33 -37 33 -11 0 -16 -9 -16 -30 0 -28 -3 -30 -35 -30 -32 0 -35 2 -35 30 0 23
-4 30 -20 30 -18 0 -20 -7 -20 -85z"/>
<path d="M6950 4886 l0 -86 39 0 c76 0 121 31 121 84 0 49 -37 78 -105 84
l-55 4 0 -86z m98 32 c26 -26 7 -78 -29 -78 -18 0 -27 29 -21 68 4 24 30 30
50 10z"/>
<path d="M7134 4957 c-3 -8 -4 -45 -2 -83 l3 -69 68 -3 c62 -3 67 -1 67 18 0
16 -6 20 -35 20 -43 0 -46 16 -5 25 42 9 42 45 1 45 -17 0 -33 5 -36 10 -4 6
10 10 35 10 34 0 41 3 38 18 -3 14 -16 18 -66 20 -46 2 -64 -1 -68 -11z"/>
<path d="M7297 4963 c-4 -3 -7 -42 -7 -85 0 -71 2 -78 20 -78 14 0 21 9 26 34
3 19 3 39 -1 45 -3 6 -4 11 -1 11 3 0 19 -20 37 -45 22 -31 40 -45 56 -45 21
0 23 4 23 50 0 43 3 50 20 50 14 0 26 -14 41 -50 17 -39 26 -50 44 -50 18 0
27 10 41 45 22 58 45 57 58 -3 l9 -42 62 0 c47 0 64 4 69 15 3 8 10 15 16 15
5 0 10 -7 10 -15 0 -8 7 -15 16 -15 8 0 22 7 30 15 9 8 20 15 25 15 5 0 12 -7
15 -15 4 -8 17 -15 30 -15 24 0 24 1 10 27 -12 24 -12 30 1 50 20 31 9 71 -23
83 -41 16 -104 13 -104 -5 0 -8 -5 -15 -10 -15 -6 0 -13 7 -16 15 -8 19 -129
22 -138 3 -5 -10 -7 -10 -12 0 -10 21 -44 13 -56 -13 -7 -16 -19 -25 -33 -25
-14 0 -26 9 -33 25 -7 15 -20 25 -33 25 -17 0 -20 -5 -17 -25 4 -17 1 -25 -8
-25 -8 0 -14 11 -14 25 0 18 -5 25 -20 25 -14 0 -21 -9 -26 -34 -3 -19 -3 -41
1 -48 4 -7 -12 8 -35 35 -40 45 -58 55 -73 40z m483 -113 c0 -5 -7 -10 -15
-10 -8 0 -15 5 -15 10 0 6 7 10 15 10 8 0 15 -4 15 -10z"/>
<path d="M11249 4598 c-5 -9 -5 -48 -1 -43 6 6 11 45 5 45 -2 0 -4 -1 -4 -2z"/>
<path d="M11220 4534 c0 -8 5 -12 10 -9 6 4 8 11 5 16 -9 14 -15 11 -15 -7z"/>
<path d="M11247 4521 c-3 -14 -11 -18 -26 -14 -15 4 -21 1 -21 -11 0 -9 -7
-16 -15 -16 -22 0 -18 -16 7 -34 22 -16 43 -12 32 5 -3 5 -2 9 3 8 23 -4 30 5
31 41 2 43 -3 52 -11 21z"/>
<path d="M3233 4495 c-17 -13 -17 -14 1 -34 23 -26 33 -26 44 -3 6 12 4 22 -9
34 -15 14 -20 14 -36 3z"/>
<path d="M5225 4440 c3 -5 12 -7 20 -3 21 7 19 13 -6 13 -11 0 -18 -4 -14 -10z"/>
</g>
</svg>
